<svg width="1280" height="720" xmlns="http://www.w3.org/2000/svg" xmlns:xlink="http://www.w3.org/1999/xlink" overflow="hidden"><defs><clipPath id="clip0"><rect x="0" y="0" width="1280" height="720"/></clipPath><clipPath id="clip1"><rect x="376" y="182" width="48" height="48"/></clipPath><clipPath id="clip2"><rect x="376" y="182" width="48" height="48"/></clipPath><clipPath id="clip3"><rect x="376" y="182" width="48" height="48"/></clipPath><clipPath id="clip4"><rect x="427" y="389" width="48" height="48"/></clipPath><clipPath id="clip5"><rect x="427" y="389" width="48" height="48"/></clipPath><clipPath id="clip6"><rect x="427" y="389" width="48" height="48"/></clipPath><linearGradient x1="454.493" y1="422.867" x2="454.493" y2="407.213" gradientUnits="userSpaceOnUse" spreadMethod="pad" id="fill7"><stop offset="0" stop-color="#0078D4"/><stop offset="0.82" stop-color="#5EA0EF"/><stop offset="1" stop-color="#5EA0EF"/></linearGradient><linearGradient x1="454.493" y1="428.92" x2="454.493" y2="422.867" gradientUnits="userSpaceOnUse" spreadMethod="pad" id="fill8"><stop offset="0" stop-color="#CCCCCC"/><stop offset="0.15" stop-color="#CCCCCC"/><stop offset="1" stop-color="#707070"/></linearGradient><clipPath id="clip9"><rect x="473" y="537" width="48" height="48"/></clipPath><clipPath id="clip10"><rect x="473" y="537" width="48" height="48"/></clipPath><clipPath id="clip11"><rect x="473" y="537" width="48" height="48"/></clipPath><linearGradient x1="496.68" y1="569.56" x2="496.68" y2="537.56" gradientUnits="userSpaceOnUse" spreadMethod="pad" id="fill12"><stop offset="0" stop-color="#0078D4"/><stop offset="0.82" stop-color="#5EA0EF"/><stop offset="1" stop-color="#5EA0EF"/></linearGradient><linearGradient x1="496.68" y1="581.907" x2="496.68" y2="569.56" gradientUnits="userSpaceOnUse" spreadMethod="pad" id="fill13"><stop offset="0" stop-color="#CCCCCC"/><stop offset="0.15" stop-color="#CCCCCC"/><stop offset="1" stop-color="#707070"/></linearGradient><clipPath id="clip14"><rect x="473" y="462" width="48" height="48"/></clipPath><clipPath id="clip15"><rect x="473" y="462" width="48" height="48"/></clipPath><clipPath id="clip16"><rect x="473" y="462" width="48" height="48"/></clipPath><linearGradient x1="496.68" y1="494.56" x2="496.68" y2="462.56" gradientUnits="userSpaceOnUse" spreadMethod="pad" id="fill17"><stop offset="0" stop-color="#0078D4"/><stop offset="0.82" stop-color="#5EA0EF"/><stop offset="1" stop-color="#5EA0EF"/></linearGradient><linearGradient x1="496.68" y1="506.907" x2="496.68" y2="494.56" gradientUnits="userSpaceOnUse" spreadMethod="pad" id="fill18"><stop offset="0" stop-color="#CCCCCC"/><stop offset="0.15" stop-color="#CCCCCC"/><stop offset="1" stop-color="#707070"/></linearGradient><clipPath id="clip19"><rect x="431" y="595" width="48" height="48"/></clipPath><clipPath id="clip20"><rect x="431" y="595" width="48" height="48"/></clipPath><clipPath id="clip21"><rect x="431" y="595" width="48" height="48"/></clipPath><linearGradient x1="455.027" y1="597" x2="455.027" y2="641" gradientUnits="userSpaceOnUse" spreadMethod="pad" id="fill22"><stop offset="0" stop-color="#5EA0EF"/><stop offset="0.18" stop-color="#559CEC"/><stop offset="0.47" stop-color="#3C91E5"/><stop offset="0.84" stop-color="#1380DA"/><stop offset="1" stop-color="#0078D4"/></linearGradient><clipPath id="clip23"><rect x="313" y="136" width="48" height="48"/></clipPath><clipPath id="clip24"><rect x="313" y="136" width="48" height="48"/></clipPath><clipPath id="clip25"><rect x="313" y="136" width="48" height="48"/></clipPath><radialGradient cx="-36.63" cy="17.12" r="11.18" gradientUnits="userSpaceOnUse" spreadMethod="pad" id="fill26" gradientTransform="matrix(2.50667 0 0 2.50667 424.68 116.267)"><stop offset="0" stop-color="#FFD70F"/><stop offset="0.27" stop-color="#FFD70F"/><stop offset="0.49" stop-color="#FFCB12"/><stop offset="0.88" stop-color="#FEAC19"/><stop offset="1" stop-color="#FEA11B"/></radialGradient><clipPath id="clip27"><rect x="385" y="268" width="48" height="48"/></clipPath><clipPath id="clip28"><rect x="385" y="268" width="48" height="48"/></clipPath><clipPath id="clip29"><rect x="385" y="268" width="48" height="48"/></clipPath><linearGradient x1="416.792" y1="289.803" x2="421.171" y2="294.17" gradientUnits="userSpaceOnUse" spreadMethod="pad" id="fill30"><stop offset="0" stop-color="#86D633"/><stop offset="1" stop-color="#5E9624"/></linearGradient><linearGradient x1="401.48" y1="290.907" x2="405.827" y2="295.28" gradientUnits="userSpaceOnUse" spreadMethod="pad" id="fill31"><stop offset="0" stop-color="#86D633"/><stop offset="1" stop-color="#5E9624"/></linearGradient><linearGradient x1="391.613" y1="290.907" x2="395.96" y2="295.28" gradientUnits="userSpaceOnUse" spreadMethod="pad" id="fill32"><stop offset="0" stop-color="#86D633"/><stop offset="1" stop-color="#5E9624"/></linearGradient><clipPath id="clip33"><rect x="1005" y="513" width="48" height="48"/></clipPath><clipPath id="clip34"><rect x="1005" y="513" width="48" height="48"/></clipPath><clipPath id="clip35"><rect x="1005" y="513" width="48" height="48"/></clipPath><linearGradient x1="1011.91" y1="540.093" x2="1046.09" y2="540.093" gradientUnits="userSpaceOnUse" spreadMethod="pad" id="fill36"><stop offset="0" stop-color="#005BA1"/><stop offset="0.07" stop-color="#0060A9"/><stop offset="0.36" stop-color="#0071C8"/><stop offset="0.52" stop-color="#0078D4"/><stop offset="0.64" stop-color="#0074CD"/><stop offset="0.82" stop-color="#006ABB"/><stop offset="1" stop-color="#005BA1"/></linearGradient><radialGradient cx="9.36" cy="10.57" r="7.07" gradientUnits="userSpaceOnUse" spreadMethod="pad" id="fill37" gradientTransform="matrix(2.66667 0 0 2.66667 1005 513)"><stop offset="0" stop-color="#F2F2F2"/><stop offset="0.58" stop-color="#EEEEEE"/><stop offset="1" stop-color="#E6E6E6"/></radialGradient><clipPath id="clip38"><rect x="1011" y="582" width="48" height="48"/></clipPath><clipPath id="clip39"><rect x="1011" y="582" width="48" height="48"/></clipPath><clipPath id="clip40"><rect x="1011" y="582" width="48" height="48"/></clipPath><linearGradient x1="1012.33" y1="608.773" x2="1046.15" y2="608.773" gradientUnits="userSpaceOnUse" spreadMethod="pad" id="fill41"><stop offset="0" stop-color="#005BA1"/><stop offset="0.07" stop-color="#0060A9"/><stop offset="0.36" stop-color="#0071C8"/><stop offset="0.52" stop-color="#0078D4"/><stop offset="0.64" stop-color="#0074CD"/><stop offset="0.82" stop-color="#006ABB"/><stop offset="1" stop-color="#005BA1"/></linearGradient><clipPath id="clip42"><rect x="1002" y="316" width="48" height="48"/></clipPath><clipPath id="clip43"><rect x="1002" y="316" width="48" height="48"/></clipPath><clipPath id="clip44"><rect x="1002" y="316" width="48" height="48"/></clipPath><linearGradient x1="1015.95" y1="362.533" x2="1015.95" y2="337.573" gradientUnits="userSpaceOnUse" spreadMethod="pad" id="fill45"><stop offset="0" stop-color="#1988D9"/><stop offset="0.9" stop-color="#54AEF0"/><stop offset="1" stop-color="#54AEF0"/></linearGradient><linearGradient x1="1032.67" y1="349.2" x2="1032.67" y2="317.467" gradientUnits="userSpaceOnUse" spreadMethod="pad" id="fill46"><stop offset="0" stop-color="#198AB3"/><stop offset="0.01" stop-color="#198BB4"/><stop offset="0.44" stop-color="#27B2D7"/><stop offset="0.79" stop-color="#2FCBED"/><stop offset="1" stop-color="#32D4F5"/></linearGradient><clipPath id="clip47"><rect x="1002" y="249" width="48" height="48"/></clipPath><clipPath id="clip48"><rect x="1002" y="249" width="48" height="48"/></clipPath><clipPath id="clip49"><rect x="1002" y="249" width="48" height="48"/></clipPath><linearGradient x1="1026" y1="291.213" x2="1026" y2="264.44" gradientUnits="userSpaceOnUse" spreadMethod="pad" id="fill50"><stop offset="0" stop-color="#B3B3B3"/><stop offset="0.26" stop-color="#C1C1C1"/><stop offset="1" stop-color="#E6E6E6"/></linearGradient><clipPath id="clip51"><rect x="1003" y="379" width="48" height="48"/></clipPath><clipPath id="clip52"><rect x="1003" y="379" width="48" height="48"/></clipPath><clipPath id="clip53"><rect x="1003" y="379" width="48" height="48"/></clipPath><radialGradient cx="9" cy="9" r="8.5" gradientUnits="userSpaceOnUse" spreadMethod="pad" id="fill54" gradientTransform="matrix(2.66667 0 0 2.66667 1003 379)"><stop offset="0" stop-color="#5EA0EF"/><stop offset="0.18" stop-color="#5EA0EF"/><stop offset="0.56" stop-color="#5C9FEE"/><stop offset="0.69" stop-color="#559CED"/><stop offset="0.78" stop-color="#4A97E9"/><stop offset="0.86" stop-color="#3990E4"/><stop offset="0.93" stop-color="#2387DE"/><stop offset="0.99" stop-color="#087BD6"/><stop offset="1" stop-color="#0078D4"/></radialGradient><radialGradient cx="38.95" cy="182.07" r="9.88" gradientUnits="userSpaceOnUse" spreadMethod="pad" id="fill55" gradientTransform="matrix(2.50667 0 0 2.50667 926.44 -56.3067)"><stop offset="0" stop-color="#FFD70F"/><stop offset="0.27" stop-color="#FFD70F"/><stop offset="0.49" stop-color="#FFCB12"/><stop offset="0.88" stop-color="#FEAC19"/><stop offset="1" stop-color="#FEA11B"/></radialGradient><clipPath id="clip56"><rect x="569" y="51" width="48" height="48"/></clipPath><clipPath id="clip57"><rect x="569" y="51" width="48" height="48"/></clipPath><clipPath id="clip58"><rect x="569" y="51" width="48" height="48"/></clipPath><linearGradient x1="604.333" y1="85.72" x2="591.987" y2="62.3333" gradientUnits="userSpaceOnUse" spreadMethod="pad" id="fill59"><stop offset="0" stop-color="#1988D9"/><stop offset="0.9" stop-color="#54AEF0"/><stop offset="1" stop-color="#54AEF0"/></linearGradient><linearGradient x1="599.027" y1="78.92" x2="607.56" y2="93.64" gradientUnits="userSpaceOnUse" spreadMethod="pad" id="fill60"><stop offset="0" stop-color="#54AEF0"/><stop offset="0.1" stop-color="#54AEF0"/><stop offset="0.29" stop-color="#4FABEE"/><stop offset="0.51" stop-color="#41A2E9"/><stop offset="0.74" stop-color="#2A93E0"/><stop offset="0.88" stop-color="#1988D9"/><stop offset="1" stop-color="#1988D9"/></linearGradient><clipPath id="clip61"><rect x="117" y="35" width="72" height="72"/></clipPath><clipPath id="clip62"><rect x="117" y="35" width="72" height="72"/></clipPath><clipPath id="clip63"><rect x="117" y="35" width="72" height="72"/></clipPath><linearGradient x1="153" y1="102.18" x2="153" y2="39.82" gradientUnits="userSpaceOnUse" spreadMethod="pad" id="fill64"><stop offset="0" stop-color="#5E9624"/><stop offset="0.321" stop-color="#639D26"/><stop offset="0.794" stop-color="#6FB12A"/><stop offset="0.999" stop-color="#76BC2D"/><stop offset="1" stop-color="#76BC2D"/></linearGradient><clipPath id="clip65"><rect x="740" y="261" width="48" height="48"/></clipPath><clipPath id="clip66"><rect x="740" y="261" width="48" height="48"/></clipPath><clipPath id="clip67"><rect x="740" y="261" width="48" height="48"/></clipPath><linearGradient x1="763.032" y1="255.691" x2="763.032" y2="305.637" gradientUnits="userSpaceOnUse" spreadMethod="pad" id="fill68"><stop offset="0" stop-color="#5EA0EF"/><stop offset="1" stop-color="#0078D4"/></linearGradient><linearGradient x1="774.56" y1="291.504" x2="774.56" y2="297.957" gradientUnits="userSpaceOnUse" spreadMethod="pad" id="fill69"><stop offset="0" stop-color="#333132"/><stop offset="1" stop-color="#5B5A5C"/></linearGradient><clipPath id="clip70"><rect x="868" y="265" width="48" height="48"/></clipPath><clipPath id="clip71"><rect x="868" y="265" width="48" height="48"/></clipPath><clipPath id="clip72"><rect x="868" y="265" width="48" height="48"/></clipPath><linearGradient x1="875.84" y1="274.973" x2="891.12" y2="274.973" gradientUnits="userSpaceOnUse" spreadMethod="pad" id="fill73"><stop offset="0" stop-color="#B77AF4"/><stop offset="1" stop-color="#773ADC"/></linearGradient><linearGradient x1="892.347" y1="275.107" x2="907.6" y2="275.107" gradientUnits="userSpaceOnUse" spreadMethod="pad" id="fill74"><stop offset="0" stop-color="#B77AF4"/><stop offset="1" stop-color="#773ADC"/></linearGradient><linearGradient x1="868.027" y1="289.32" x2="883.28" y2="289.32" gradientUnits="userSpaceOnUse" spreadMethod="pad" id="fill75"><stop offset="0" stop-color="#B77AF4"/><stop offset="1" stop-color="#773ADC"/></linearGradient><linearGradient x1="884.48" y1="289.213" x2="899.733" y2="289.213" gradientUnits="userSpaceOnUse" spreadMethod="pad" id="fill76"><stop offset="0" stop-color="#B77AF4"/><stop offset="1" stop-color="#773ADC"/></linearGradient><linearGradient x1="900.933" y1="289.347" x2="916.213" y2="289.347" gradientUnits="userSpaceOnUse" spreadMethod="pad" id="fill77"><stop offset="0" stop-color="#B77AF4"/><stop offset="1" stop-color="#773ADC"/></linearGradient><linearGradient x1="875.653" y1="303.827" x2="890.933" y2="303.827" gradientUnits="userSpaceOnUse" spreadMethod="pad" id="fill78"><stop offset="0" stop-color="#B77AF4"/><stop offset="1" stop-color="#773ADC"/></linearGradient><linearGradient x1="892.133" y1="303.933" x2="907.413" y2="303.933" gradientUnits="userSpaceOnUse" spreadMethod="pad" id="fill79"><stop offset="0" stop-color="#B77AF4"/><stop offset="1" stop-color="#773ADC"/></linearGradient><clipPath id="clip80"><rect x="739" y="454" width="48" height="48"/></clipPath><clipPath id="clip81"><rect x="739" y="454" width="48" height="48"/></clipPath><clipPath id="clip82"><rect x="739" y="454" width="48" height="48"/></clipPath><radialGradient cx="13428.8" cy="3518.86" r="56.67" gradientUnits="userSpaceOnUse" spreadMethod="pad" id="fill83" gradientTransform="matrix(0.4 0 0 0.4 -4608.55 -929.547)"><stop offset="0" stop-color="#5EA0EF"/><stop offset="0.18" stop-color="#5EA0EF"/><stop offset="1" stop-color="#0078D4"/></radialGradient><linearGradient x1="750.733" y1="484.613" x2="750.653" y2="474.08" gradientUnits="userSpaceOnUse" spreadMethod="pad" id="fill84"><stop offset="0" stop-color="#CCCCCC"/><stop offset="1" stop-color="#FCFCFC"/></linearGradient><linearGradient x1="766.013" y1="495.2" x2="766.013" y2="485.733" gradientUnits="userSpaceOnUse" spreadMethod="pad" id="fill85"><stop offset="0" stop-color="#CCCCCC"/><stop offset="1" stop-color="#FCFCFC"/></linearGradient><linearGradient x1="776.813" y1="483.733" x2="776.813" y2="473.68" gradientUnits="userSpaceOnUse" spreadMethod="pad" id="fill86"><stop offset="0" stop-color="#CCCCCC"/><stop offset="1" stop-color="#FCFCFC"/></linearGradient><linearGradient x1="750.733" y1="484.613" x2="750.653" y2="474.08" gradientUnits="userSpaceOnUse" spreadMethod="pad" id="fill87"><stop offset="0" stop-color="#CCCCCC"/><stop offset="1" stop-color="#FCFCFC"/></linearGradient><linearGradient x1="766.013" y1="495.2" x2="766.013" y2="485.733" gradientUnits="userSpaceOnUse" spreadMethod="pad" id="fill88"><stop offset="0" stop-color="#CCCCCC"/><stop offset="1" stop-color="#FCFCFC"/></linearGradient><clipPath id="clip89"><rect x="806" y="564" width="48" height="48"/></clipPath><clipPath id="clip90"><rect x="806" y="564" width="48" height="48"/></clipPath><clipPath id="clip91"><rect x="806" y="564" width="48" height="48"/></clipPath><linearGradient x1="820.853" y1="610.667" x2="820.853" y2="565.333" gradientUnits="userSpaceOnUse" spreadMethod="pad" id="fill92"><stop offset="0" stop-color="#949494"/><stop offset="0.05" stop-color="#949494"/><stop offset="0.36" stop-color="#979797"/><stop offset="0.54" stop-color="#9F9F9F"/><stop offset="0.69" stop-color="#ADADAD"/><stop offset="0.73" stop-color="#B3B3B3"/><stop offset="1" stop-color="#B3B3B3"/></linearGradient><linearGradient x1="834.16" y1="580.053" x2="834.16" y2="616.56" gradientUnits="userSpaceOnUse" spreadMethod="pad" id="fill93"><stop offset="0" stop-color="#5EA0EF"/><stop offset="0.18" stop-color="#5EA0EF"/><stop offset="1" stop-color="#0078D4"/></linearGradient><clipPath id="clip94"><rect x="872" y="453" width="48" height="48"/></clipPath><clipPath id="clip95"><rect x="872" y="453" width="48" height="48"/></clipPath><clipPath id="clip96"><rect x="872" y="453" width="48" height="48"/></clipPath><linearGradient x1="896.334" y1="497.952" x2="896.334" y2="455.395" gradientUnits="userSpaceOnUse" spreadMethod="pad" id="fill97"><stop offset="0" stop-color="#FEA11B"/><stop offset="0.284" stop-color="#FEA51A"/><stop offset="0.547" stop-color="#FEB018"/><stop offset="0.8" stop-color="#FFC314"/><stop offset="1" stop-color="#FFD70F"/></linearGradient></defs><g clip-path="url(#clip0)"><rect x="0" y="0" width="1280" height="720" fill="#FFFFFF"/><path d="M361 185.858C361 177.652 367.652 171 375.858 171L1214.14 171C1222.35 171 1229 177.652 1229 185.858L1229 660.142C1229 668.348 1222.35 675 1214.14 675L375.858 675C367.652 675 361 668.348 361 660.142Z" fill="#E8F0F8" fill-rule="evenodd"/><g clip-path="url(#clip1)"><g clip-path="url(#clip2)"><g clip-path="url(#clip3)"><path d="M377.333 222.213C377.332 222.367 377.413 222.51 377.547 222.587L380.64 224.32 385.867 227.333C386.081 227.455 386.353 227.385 386.48 227.173L388.24 224.187C388.342 223.987 388.272 223.742 388.08 223.627L381.947 220.16C381.817 220.079 381.737 219.939 381.733 219.787L381.733 192.267C381.732 192.113 381.813 191.97 381.947 191.893L388.08 188.427C388.272 188.311 388.342 188.066 388.24 187.867L386.48 184.88C386.374 184.653 386.104 184.555 385.877 184.662 385.874 184.663 385.87 184.665 385.867 184.667L380.747 187.627 377.547 189.413C377.413 189.49 377.332 189.633 377.333 189.787L377.333 222.213Z" fill="#949494"/><path d="M381.707 192.053 381.867 191.893 388 188.427C388.19 188.347 388.279 188.128 388.2 187.938 388.189 187.913 388.176 187.889 388.16 187.867L386.4 184.88C386.329 184.671 386.102 184.559 385.893 184.63 385.865 184.639 385.838 184.651 385.813 184.667L380.667 187.627 377.493 189.413C377.493 189.413 377.36 189.413 377.333 189.573L379.733 190.933Z" fill="#A3A3A3"/><path d="M388 223.573 381.867 220.107C381.784 220.045 381.72 219.962 381.68 219.867L377.36 222.533 377.493 222.533 380.56 224.267 385.893 227.227C386.076 227.351 386.325 227.303 386.449 227.121 386.461 227.104 386.471 227.086 386.48 227.067L388.24 224.08C388.322 223.891 388.234 223.671 388.045 223.589 388.03 223.583 388.015 223.578 388 223.573Z" fill="#A3A3A3"/><path d="M422.667 222.213C422.668 222.367 422.587 222.51 422.453 222.587L419.36 224.32 414.133 227.333C413.919 227.455 413.647 227.385 413.52 227.173L411.76 224.187C411.658 223.987 411.728 223.742 411.92 223.627L418.053 220.16C418.183 220.079 418.263 219.939 418.267 219.787L418.267 192.267C418.268 192.113 418.187 191.97 418.053 191.893L411.92 188.427C411.728 188.311 411.658 188.066 411.76 187.867L413.52 184.88C413.626 184.653 413.896 184.555 414.123 184.662 414.126 184.663 414.13 184.665 414.133 184.667L419.253 187.573 422.453 189.36C422.587 189.437 422.668 189.58 422.667 189.733L422.667 222.213Z" fill="#949494"/><path d="M418.293 192.053 418.133 191.893 412 188.427C411.81 188.347 411.721 188.128 411.801 187.938 411.811 187.913 411.824 187.889 411.84 187.867L413.6 184.88C413.671 184.671 413.898 184.559 414.107 184.63 414.135 184.639 414.162 184.651 414.187 184.667L419.333 187.573 422.507 189.36C422.507 189.36 422.507 189.36 422.667 189.52L420.267 190.88Z" fill="#A3A3A3"/><path d="M412 223.573 418.133 220.107C418.215 220.045 418.28 219.962 418.32 219.867L422.64 222.533 422.64 222.533 419.573 224.267 414.24 227.227C414.057 227.351 413.809 227.303 413.684 227.121 413.673 227.104 413.662 227.086 413.653 227.067L411.893 224.08C411.787 223.91 411.834 223.686 412 223.573Z" fill="#A3A3A3"/><path d="M414.16 197.813 414.16 214.187 399.973 222.427 399.973 206.027 414.16 197.813Z" fill="#32BEDD"/><path d="M414.16 197.813 400 206.053 385.813 197.813 400 189.573 414.16 197.813Z" fill="#9CEBFF"/><path d="M399.973 206.053 399.973 222.427 385.813 214.187 385.813 197.813 399.973 206.053Z" fill="#50E6FF"/><path d="M385.813 214.187 399.973 206.027 399.973 222.427 385.813 214.187Z" fill="#9CEBFF"/><path d="M414.16 214.187 399.973 206.027 399.973 222.427 414.16 214.187Z" fill="#50E6FF"/></g></g></g><text font-family="Segoe UI,Segoe UI_MSFontService,sans-serif" font-weight="400" font-size="19" transform="translate(433.62 212)">asclab<tspan fill="#595959" font-weight="700" font-size="12" x="56.3333" y="0">Resource Group</tspan></text><path d="M310 48.8559C310 41.2035 316.203 35 323.856 35L1225.14 35C1232.8 35 1239 41.2035 1239 48.8559L1239 97.1441C1239 104.797 1232.8 111 1225.14 111L323.856 111C316.203 111 310 104.797 310 97.1441Z" fill="#E5FAFF" fill-rule="evenodd"/><path d="M310 141.12C310 134.427 315.427 129 322.12 129L1226.88 129C1233.57 129 1239 134.427 1239 141.12L1239 672.879C1239 679.573 1233.57 685 1226.88 685L322.12 685C315.427 685 310 679.573 310 672.879Z" stroke="#4472C4" stroke-width="2" stroke-miterlimit="8" stroke-dasharray="8 6" fill="none" fill-rule="evenodd"/><text font-family="Segoe UI,Segoe UI_MSFontService,sans-serif" font-weight="400" font-size="19" transform="translate(363.396 160)">Azure Free Trial <tspan fill="#595959" font-weight="700" font-size="12" x="130.887" y="0">Azure Subscription</tspan></text><path d="M377 253.601C377 245.537 383.537 239 391.601 239L662.399 239C670.463 239 677 245.537 677 253.601L677 639.399C677 647.463 670.463 654 662.399 654L391.601 654C383.537 654 377 647.463 377 639.399Z" stroke="#7EABD8" stroke-width="2" stroke-miterlimit="8" fill="#FFFFFF" fill-rule="evenodd"/><path d="M399 374.105C399 370.733 401.733 368 405.105 368L651.895 368C655.267 368 658 370.733 658 374.105L658 627.895C658 631.267 655.267 634 651.895 634L405.105 634C401.733 634 399 631.267 399 627.895Z" fill="#F2F2F2" fill-rule="evenodd"/><text font-family="Segoe UI,Segoe UI_MSFontService,sans-serif" font-weight="400" font-size="16" transform="translate(400.213 361)">Default <tspan x="55.3333" y="0">Subnet</tspan></text><g clip-path="url(#clip4)"><g clip-path="url(#clip5)"><g clip-path="url(#clip6)"><path d="M432.653 390.333 437.907 390.333 437.907 391.853 432.653 391.853Z" fill="#0078D4"/><path d="M471.347 391.853 472.2 391.853 472.2 392.68 473.667 392.68 473.667 390.333 471.347 390.333 471.347 391.853Z" fill="#0078D4"/><path d="M430.76 434.04 430.013 434.04 430.013 433.187 428.333 433.187 428.333 435.667 430.76 435.667 430.76 434.04Z" fill="#0078D4"/><path d="M472.2 433.267 472.2 434.04 471.347 434.04 471.347 435.667 473.667 435.667 473.667 433.267 472.2 433.267Z" fill="#0078D4"/><path d="M430.013 392.627 430.013 391.853 430.76 391.853 430.76 390.333 428.333 390.333 428.333 392.627 430.013 392.627Z" fill="#0078D4"/><path d="M458.653 398.467C459.08 398.467 459.427 398.813 459.427 399.24L459.427 413.373C459.427 413.8 459.08 414.147 458.653 414.147L436.76 414.147C436.333 414.147 435.987 413.8 435.987 413.373L435.987 399.24C435.987 398.813 436.333 398.467 436.76 398.467Z" fill="#0078D4"/><path d="M451.613 404.04 451.613 408.6 447.72 410.893 447.72 406.307 451.613 404.04Z" fill="#50E6FF"/><path d="M451.613 404.04 447.72 406.333 443.8 404.04 447.72 401.747 451.613 404.04Z" fill="#C3F1FF"/><path d="M447.72 406.333 447.72 410.893 443.8 408.6 443.8 404.04 447.72 406.333Z" fill="#9CEBFF"/><path d="M465.427 407.213C465.854 407.213 466.2 407.56 466.2 407.987L466.2 422.12C466.2 422.547 465.854 422.893 465.427 422.893L443.533 422.893C443.106 422.893 442.76 422.547 442.76 422.12L442.76 407.987C442.76 407.56 443.106 407.213 443.533 407.213Z" fill="url(#fill7)"/><path d="M458.387 412.76 458.387 417.32 454.493 419.613 454.493 415.053 458.387 412.76Z" fill="#50E6FF"/><path d="M458.387 412.76 454.493 415.053 450.573 412.76 454.493 410.467 458.387 412.76Z" fill="#C3F1FF"/><path d="M454.493 415.053 454.493 419.613 450.573 417.32 450.573 412.76 454.493 415.053Z" fill="#9CEBFF"/><path d="M450.573 417.32 454.493 415.053 454.493 419.613 450.573 417.32Z" fill="#C3F1FF"/><path d="M458.387 417.32 454.493 415.053 454.493 419.613 458.387 417.32Z" fill="#9CEBFF"/><path d="M459.187 427.613C456.867 427.24 456.787 425.56 456.787 422.867L452.173 422.867C452.173 425.533 452.173 427.24 449.773 427.613 449.126 427.716 448.644 428.265 448.627 428.92L460.36 428.92C460.34 428.257 459.844 427.704 459.187 427.613Z" fill="url(#fill8)"/><path d="M440.52 390.333 445.773 390.333 445.773 391.853 440.52 391.853Z" fill="#0078D4"/><path d="M448.36 390.333 453.613 390.333 453.613 391.853 448.36 391.853Z" fill="#0078D4"/><path d="M456.227 390.333 461.48 390.333 461.48 391.853 456.227 391.853Z" fill="#0078D4"/><path d="M464.093 390.333 469.347 390.333 469.347 391.853 464.093 391.853Z" fill="#0078D4"/><path d="M432.707 434.04 437.96 434.04 437.96 435.56 432.707 435.56Z" fill="#0078D4"/><path d="M440.547 434.04 445.8 434.04 445.8 435.56 440.547 435.56Z" fill="#0078D4"/><path d="M448.413 434.04 453.667 434.04 453.667 435.56 448.413 435.56Z" fill="#0078D4"/><path d="M456.28 434.04 461.533 434.04 461.533 435.56 456.28 435.56Z" fill="#0078D4"/><path d="M464.12 434.04 469.373 434.04 469.373 435.56 464.12 435.56Z" fill="#0078D4"/><path d="M472.147 394.467 473.667 394.467 473.667 399.72 472.147 399.72Z" fill="#0078D4"/><path d="M472.147 402.307 473.667 402.307 473.667 407.56 472.147 407.56Z" fill="#0078D4"/><path d="M472.147 410.173 473.667 410.173 473.667 415.427 472.147 415.427Z" fill="#0078D4"/><path d="M472.147 418.013 473.667 418.013 473.667 423.267 472.147 423.267Z" fill="#0078D4"/><path d="M472.147 425.88 473.667 425.88 473.667 431.133 472.147 431.133Z" fill="#0078D4"/><path d="M428.333 394.413 429.853 394.413 429.853 399.667 428.333 399.667Z" fill="#0078D4"/><path d="M428.333 402.28 429.853 402.28 429.853 407.533 428.333 407.533Z" fill="#0078D4"/><path d="M428.333 410.12 429.853 410.12 429.853 415.373 428.333 415.373Z" fill="#0078D4"/><path d="M428.333 417.987 429.853 417.987 429.853 423.24 428.333 423.24Z" fill="#0078D4"/><path d="M428.333 425.827 429.853 425.827 429.853 431.08 428.333 431.08Z" fill="#0078D4"/></g></g></g><g clip-path="url(#clip9)"><g clip-path="url(#clip10)"><g clip-path="url(#clip11)"><path d="M519.08 537.56C519.964 537.56 520.68 538.276 520.68 539.16L520.68 567.96C520.68 568.844 519.964 569.56 519.08 569.56L474.28 569.56C473.396 569.56 472.68 568.844 472.68 567.96L472.68 539.16C472.68 538.276 473.396 537.56 474.28 537.56Z" fill="url(#fill12)"/><path d="M504.68 548.893 504.68 558.2 496.68 562.893 496.68 553.56 504.68 548.893Z" fill="#50E6FF"/><path d="M504.68 548.893 496.68 553.587 488.68 548.893 496.68 544.227 504.68 548.893Z" fill="#C3F1FF"/><path d="M496.68 553.587 496.68 562.893 488.68 558.2 488.68 548.893 496.68 553.587Z" fill="#9CEBFF"/><path d="M488.68 558.2 496.68 553.56 496.68 562.893 488.68 558.2Z" fill="#C3F1FF"/><path d="M504.68 558.2 496.68 553.56 496.68 562.893 504.68 558.2Z" fill="#9CEBFF"/><path d="M506.307 579.24C501.56 578.493 501.373 575.08 501.373 569.56L491.96 569.56C491.96 575.08 491.8 578.493 487.053 579.24 485.696 579.39 484.672 580.541 484.68 581.907L508.68 581.907C508.688 580.541 507.664 579.39 506.307 579.24Z" fill="url(#fill13)"/></g></g></g><g clip-path="url(#clip14)"><g clip-path="url(#clip15)"><g clip-path="url(#clip16)"><path d="M519.08 462.56C519.964 462.56 520.68 463.276 520.68 464.16L520.68 492.96C520.68 493.844 519.964 494.56 519.08 494.56L474.28 494.56C473.396 494.56 472.68 493.844 472.68 492.96L472.68 464.16C472.68 463.276 473.396 462.56 474.28 462.56Z" fill="url(#fill17)"/><path d="M504.68 473.893 504.68 483.2 496.68 487.893 496.68 478.56 504.68 473.893Z" fill="#50E6FF"/><path d="M504.68 473.893 496.68 478.587 488.68 473.893 496.68 469.227 504.68 473.893Z" fill="#C3F1FF"/><path d="M496.68 478.587 496.68 487.893 488.68 483.2 488.68 473.893 496.68 478.587Z" fill="#9CEBFF"/><path d="M488.68 483.2 496.68 478.56 496.68 487.893 488.68 483.2Z" fill="#C3F1FF"/><path d="M504.68 483.2 496.68 478.56 496.68 487.893 504.68 483.2Z" fill="#9CEBFF"/><path d="M506.307 504.24C501.56 503.493 501.373 500.08 501.373 494.56L491.96 494.56C491.96 500.08 491.8 503.493 487.053 504.24 485.696 504.39 484.672 505.541 484.68 506.907L508.68 506.907C508.688 505.541 507.664 504.39 506.307 504.24Z" fill="url(#fill18)"/></g></g></g><g clip-path="url(#clip19)"><g clip-path="url(#clip20)"><g clip-path="url(#clip21)"><path d="M474.627 617.4C474.627 630.307 459.027 640.707 455.64 642.813 455.247 643.054 454.753 643.054 454.36 642.813 450.973 640.707 435.373 630.307 435.373 617.4L435.373 601.88C435.373 601.213 435.906 600.668 436.573 600.653 448.707 600.333 445.907 595 455 595 464.093 595 461.293 600.333 473.427 600.653 474.094 600.668 474.627 601.213 474.627 601.88Z" fill="#0078D4"/><path d="M473 617.533C473 629.373 458.707 638.867 455.587 640.84 455.225 641.055 454.775 641.055 454.413 640.84 451.293 638.92 437 629.373 437 617.533L437 603.293C437 602.685 437.485 602.188 438.093 602.173 449.213 601.88 446.653 597 455 597 463.347 597 460.787 601.88 471.907 602.173 472.515 602.188 473 602.685 473 603.293Z" fill="#6BB9F2"/><path d="M455 619 455 597C463.347 597 460.787 601.88 471.907 602.173 472.519 602.202 473.001 602.707 473 603.32L473 617.56C473.026 618.04 473.026 618.52 473 619ZM455 619 437.08 619C438.147 630.147 451.427 639 454.413 640.84 454.558 640.932 454.723 640.987 454.893 641L455 641Z" fill="url(#fill22)"/><path d="M438.093 602.173C449.213 601.88 446.653 597 455 597L455 619 437.08 619C437.053 618.52 437.053 618.04 437.08 617.56L437.08 603.32C437.076 602.735 437.513 602.241 438.093 602.173Z" fill="#50E6FF"/><path d="M472.92 619 455 619 455 641 455 641C455.171 640.987 455.336 640.932 455.48 640.84 458.573 639 471.853 630.147 472.92 619Z" fill="#50E6FF"/></g></g></g><path d="M695 227.342C695 220.526 700.526 215 707.342 215L953.658 215C960.474 215 966 220.526 966 227.342L966 383.658C966 390.474 960.474 396 953.658 396L707.342 396C700.526 396 695 390.474 695 383.658Z" fill="#FFFFFF" fill-rule="evenodd"/><path d="M696 435.025C696 426.174 703.174 419 712.025 419L949.975 419C958.826 419 966 426.174 966 435.025L966 637.975C966 646.826 958.826 654 949.975 654L712.025 654C703.174 654 696 646.826 696 637.975Z" fill="#FFFFFF" fill-rule="evenodd"/><g clip-path="url(#clip23)"><g clip-path="url(#clip24)"><g clip-path="url(#clip25)"><path d="M349.16 155.173C351.318 153.02 351.321 149.524 349.167 147.367 349.165 147.365 349.162 147.362 349.16 147.36L349.16 147.36 339.667 137.84C337.526 135.69 334.048 135.682 331.898 137.822 331.892 137.828 331.886 137.834 331.88 137.84L331.88 137.84 322.387 147.36C320.255 149.528 320.255 153.005 322.387 155.173L330.387 163.173C330.67 163.468 330.832 163.858 330.84 164.267L330.84 178.987C330.833 179.485 331.025 179.965 331.373 180.32L334.973 183.92C335.424 184.406 336.183 184.435 336.669 183.984 336.691 183.963 336.713 183.942 336.733 183.92L340.227 180.427 340.227 180.427 342.28 178.373C342.56 178.112 342.575 177.673 342.313 177.393 342.303 177.382 342.291 177.371 342.28 177.36L340.813 175.867C340.504 175.572 340.492 175.083 340.787 174.773 340.795 174.764 340.804 174.755 340.813 174.747L342.28 173.253C342.56 172.992 342.575 172.553 342.313 172.273 342.303 172.262 342.291 172.251 342.28 172.24L340.733 170.667C340.431 170.386 340.414 169.913 340.695 169.611 340.707 169.598 340.72 169.586 340.733 169.573L342.333 168C342.613 167.739 342.628 167.3 342.367 167.02 342.356 167.009 342.345 166.997 342.333 166.987L340.28 164.907 340.28 164.16ZM335.827 140.133C337.564 140.148 338.961 141.569 338.947 143.307 338.932 145.044 337.511 146.441 335.773 146.426 334.046 146.412 332.653 145.007 332.653 143.28 332.639 141.557 334.023 140.148 335.747 140.133 335.755 140.133 335.764 140.133 335.773 140.133Z" fill="url(#fill26)"/><path d="M333.32 179.227 333.32 179.227C333.634 179.418 334.045 179.318 334.236 179.004 334.298 178.902 334.332 178.786 334.333 178.667L334.333 166.8C334.335 166.569 334.226 166.35 334.04 166.213L334.04 166.213C333.735 166.007 333.321 166.086 333.114 166.391 333.032 166.511 332.992 166.655 333 166.8L333 178.667C333.012 178.893 333.131 179.101 333.32 179.227Z" fill="#FF9300" fill-opacity="0.75"/><path d="M342.947 150.533C343.418 150.533 343.8 150.915 343.8 151.387L343.8 151.52C343.8 151.991 343.418 152.373 342.947 152.373L329.027 152.373C328.555 152.373 328.173 151.991 328.173 151.52L328.173 151.387C328.173 150.915 328.555 150.533 329.027 150.533Z" fill="#FF9300" fill-opacity="0.75"/><path d="M342.947 153.52C343.418 153.52 343.8 153.902 343.8 154.373L343.8 154.507C343.8 154.978 343.418 155.36 342.947 155.36L329.027 155.36C328.555 155.36 328.173 154.978 328.173 154.507L328.173 154.373C328.173 153.902 328.555 153.52 329.027 153.52Z" fill="#FF9300" fill-opacity="0.75"/></g></g></g><g clip-path="url(#clip27)"><g clip-path="url(#clip28)"><g clip-path="url(#clip29)"><path d="M422.067 291.973C422.067 293.682 420.682 295.067 418.973 295.067 417.265 295.067 415.88 293.682 415.88 291.973 415.88 290.265 417.265 288.88 418.973 288.88 420.682 288.88 422.067 290.265 422.067 291.973Z" fill="url(#fill30)"/><path d="M412.2 292C412.2 293.708 410.815 295.093 409.107 295.093 407.398 295.093 406.013 293.708 406.013 292 406.013 290.292 407.398 288.907 409.107 288.907 410.815 288.907 412.2 290.292 412.2 292Z" fill="url(#fill31)"/><path d="M402.333 292C402.333 293.708 400.948 295.093 399.24 295.093 397.532 295.093 396.147 293.708 396.147 292 396.147 290.292 397.532 288.907 399.24 288.907 400.948 288.907 402.333 290.292 402.333 292Z" fill="url(#fill32)"/><path d="M401.486 304.367 399.716 306.142C399.404 306.455 398.897 306.455 398.584 306.143L385.48 293.076C384.854 292.451 384.853 291.438 385.477 290.813L387.247 289.038 387.247 289.038 401.484 303.236C401.797 303.547 401.798 304.054 401.486 304.367Z" fill="#50E6FF"/><path d="M399.448 277.889 401.223 279.659C401.536 279.971 401.536 280.477 401.224 280.79L387.234 294.82 387.234 294.82 385.459 293.05C384.833 292.426 384.832 291.413 385.456 290.787L398.316 277.89C398.628 277.577 399.135 277.577 399.448 277.889Z" fill="#1490DF"/><path d="M430.751 289.013 432.521 290.788C433.145 291.414 433.144 292.427 432.518 293.051L419.414 306.119C419.101 306.431 418.594 306.43 418.282 306.118L416.512 304.343C416.2 304.03 416.201 303.523 416.514 303.211L430.751 289.013 430.751 289.013Z" fill="#50E6FF"/><path d="M432.516 293.032 430.741 294.802 430.741 294.802 416.75 280.773C416.438 280.46 416.439 279.953 416.752 279.641L418.545 277.852C418.858 277.54 419.365 277.541 419.677 277.854L432.538 290.751C433.162 291.376 433.16 292.389 432.534 293.013Z" fill="#1490DF"/></g></g></g><text font-family="Segoe UI,Segoe UI_MSFontService,sans-serif" font-weight="400" font-size="19" transform="translate(444.654 297)">asclab<tspan x="51.1667" y="0">-</tspan>vnet<tspan fill="#595959" font-weight="700" font-size="12" x="99.5" y="0">Virtual Network</tspan><tspan fill="#0078D4" font-size="16" x="260.178" y="-60">Container Services</tspan></text><path d="M989 477.888C989 470.77 994.77 465 1001.89 465L1197.11 465C1204.23 465 1210 470.77 1210 477.888L1210 641.112C1210 648.23 1204.23 654 1197.11 654L1001.89 654C994.77 654 989 648.23 989 641.112Z" fill="#FFFFFF" fill-rule="evenodd"/><g clip-path="url(#clip33)"><g clip-path="url(#clip34)"><g clip-path="url(#clip35)"><path d="M1029 526.707C1019.56 526.707 1011.91 524.04 1011.91 520.52L1011.91 553.48C1011.91 556.867 1019.43 559.613 1028.76 559.667L1029 559.667C1038.44 559.667 1046.09 557 1046.09 553.48L1046.09 520.52C1046.09 523.96 1038.44 526.707 1029 526.707Z" fill="url(#fill36)"/><path d="M1046.09 520.52C1046.09 523.96 1038.44 526.707 1029 526.707 1019.56 526.707 1011.91 524.04 1011.91 520.52 1011.91 517 1019.56 514.333 1029 514.333 1038.44 514.333 1046.09 517 1046.09 520.52" fill="#E8E8E8"/><path d="M1042.12 520.013C1042.12 522.2 1036.23 523.96 1029 523.96 1021.77 523.96 1015.88 522.2 1015.88 520.013 1015.88 517.827 1021.77 516.093 1029 516.093 1036.23 516.093 1042.12 517.853 1042.12 520.013" fill="#50E6FF"/><path d="M1029 521C1025.48 520.91 1021.97 521.424 1018.63 522.52 1021.98 523.595 1025.48 524.083 1029 523.96 1032.52 524.063 1036.03 523.539 1039.37 522.413 1036.02 521.368 1032.51 520.891 1029 521Z" fill="#198AB3"/><path d="M1039.4 543.4 1039.4 534.333 1037 534.333 1037 545.347 1043.56 545.347 1043.56 543.4ZM1020.36 538.947C1019.86 538.747 1019.41 538.468 1019 538.12 1018.78 537.89 1018.67 537.583 1018.68 537.267 1018.66 536.948 1018.82 536.644 1019.08 536.467 1019.41 536.24 1019.8 536.127 1020.2 536.147 1021.15 536.104 1022.09 536.376 1022.87 536.92L1022.87 534.627C1022.01 534.31 1021.11 534.165 1020.2 534.2 1019.15 534.144 1018.12 534.466 1017.29 535.107 1016.56 535.672 1016.14 536.555 1016.17 537.48 1016.17 538.84 1017.03 539.907 1018.84 540.707 1019.43 540.957 1019.98 541.279 1020.49 541.667 1020.75 541.878 1020.89 542.191 1020.89 542.52 1020.89 542.849 1020.73 543.157 1020.47 543.347 1020.1 543.559 1019.69 543.661 1019.27 543.64 1018.19 543.631 1017.16 543.233 1016.36 542.52L1016.36 545C1017.24 545.454 1018.22 545.674 1019.21 545.64 1020.33 545.706 1021.44 545.397 1022.36 544.76 1023.02 544.135 1023.35 543.236 1023.24 542.333 1023.25 541.651 1023.02 540.987 1022.57 540.467 1021.95 539.81 1021.2 539.293 1020.36 538.947ZM1034.33 543.187C1034.94 542.173 1035.24 541.007 1035.21 539.827 1035.15 538.827 1034.85 537.857 1034.33 537 1033.92 536.167 1033.27 535.473 1032.47 535 1031.65 534.539 1030.73 534.3 1029.8 534.307 1028.79 534.285 1027.8 534.533 1026.92 535.027 1026.1 535.486 1025.42 536.171 1024.97 537 1024.5 537.943 1024.26 538.986 1024.28 540.04 1024.29 540.966 1024.5 541.879 1024.92 542.707 1025.33 543.53 1025.97 544.217 1026.76 544.68 1027.57 545.171 1028.48 545.447 1029.43 545.48L1031.72 548.147 1034.95 548.147 1031.67 545.213C1032.77 544.882 1033.72 544.162 1034.33 543.187ZM1031.67 542.52C1031.17 543.131 1030.42 543.476 1029.64 543.453 1028.85 543.479 1028.09 543.121 1027.61 542.493 1027.05 541.723 1026.78 540.779 1026.84 539.827 1026.78 538.875 1027.05 537.931 1027.61 537.16 1028.12 536.533 1028.89 536.171 1029.69 536.173 1030.48 536.139 1031.24 536.511 1031.69 537.16 1032.22 537.946 1032.47 538.883 1032.41 539.827 1032.51 540.786 1032.24 541.746 1031.67 542.52Z" fill="url(#fill37)"/></g></g></g><g clip-path="url(#clip38)"><g clip-path="url(#clip39)"><g clip-path="url(#clip40)"><path d="M1029.24 595.573C1019.91 595.573 1012.33 592.907 1012.33 589.44L1012.33 622C1012.33 625.36 1019.77 628.08 1029 628.133L1029.24 628.133C1038.57 628.133 1046.15 625.467 1046.15 622L1046.15 589.44C1046.15 592.827 1038.57 595.573 1029.24 595.573Z" fill="url(#fill41)"/><path d="M1046.15 589.44C1046.15 592.827 1038.57 595.573 1029.24 595.573 1019.91 595.573 1012.33 592.827 1012.33 589.44 1012.33 586.053 1019.91 583.307 1029.24 583.307 1038.57 583.307 1046.15 585.973 1046.15 589.44" fill="#E8E8E8"/><path d="M1042.2 588.933C1042.2 591.093 1036.39 592.827 1029.24 592.827 1022.09 592.827 1016.33 591.093 1016.33 588.933 1016.33 586.773 1022.09 585.04 1029.24 585.04 1036.39 585.04 1042.2 586.8 1042.2 588.933" fill="#50E6FF"/><path d="M1029.24 589.84C1025.77 589.77 1022.31 590.266 1019 591.307 1022.31 592.406 1025.78 592.92 1029.27 592.827 1032.75 592.92 1036.23 592.406 1039.53 591.307 1036.21 590.26 1032.73 589.764 1029.24 589.84Z" fill="#198AB3"/><path d="M1039.64 611.6 1039.64 602.587 1037.16 602.587 1037.16 613.627 1043.72 613.627 1043.72 611.6ZM1020.57 607.147C1020.08 606.944 1019.62 606.665 1019.21 606.32 1019.03 606.074 1018.96 605.768 1019 605.467 1019 605.138 1019.16 604.83 1019.43 604.64 1019.76 604.429 1020.15 604.327 1020.55 604.347 1021.5 604.314 1022.43 604.585 1023.21 605.12L1023.21 602.827C1022.36 602.516 1021.45 602.371 1020.55 602.4 1019.4 602.304 1018.26 602.637 1017.35 603.333 1016.63 603.923 1016.23 604.808 1016.25 605.733 1016.25 607.093 1017.11 608.16 1018.92 608.96 1019.5 609.212 1020.05 609.535 1020.55 609.92 1020.82 610.121 1020.97 610.438 1020.97 610.773 1020.97 611.102 1020.81 611.41 1020.55 611.6 1020.19 611.831 1019.77 611.943 1019.35 611.92 1018.22 611.932 1017.14 611.501 1016.33 610.72L1016.33 613.2C1017.22 613.632 1018.2 613.842 1019.19 613.813 1020.3 613.864 1021.4 613.566 1022.33 612.96 1023.09 612.378 1023.52 611.462 1023.48 610.507 1023.51 609.822 1023.27 609.153 1022.81 608.64 1022.18 607.99 1021.42 607.481 1020.57 607.147ZM1034.44 611.333C1035.04 610.308 1035.35 609.135 1035.32 607.947 1035.34 606.929 1035.11 605.921 1034.65 605.013 1034.24 604.181 1033.59 603.486 1032.79 603.013 1031.97 602.553 1031.05 602.314 1030.12 602.32 1029.1 602.302 1028.1 602.55 1027.21 603.04 1026.38 603.522 1025.7 604.235 1025.27 605.093 1024.79 606.042 1024.55 607.096 1024.57 608.16 1024.56 609.131 1024.78 610.092 1025.21 610.96 1025.62 611.784 1026.25 612.477 1027.03 612.96 1027.83 613.449 1028.75 613.715 1029.69 613.733L1031.96 616.4 1035.13 616.4 1031.93 613.44C1032.99 613.051 1033.88 612.306 1034.44 611.333ZM1031.96 610.64C1031.01 611.767 1029.33 611.911 1028.2 610.963 1028.09 610.865 1027.98 610.757 1027.88 610.64 1027.32 609.867 1027.06 608.923 1027.13 607.973 1027.06 607.02 1027.33 606.073 1027.91 605.307 1028.39 604.653 1029.17 604.283 1029.99 604.32 1030.78 604.296 1031.53 604.666 1031.99 605.307 1032.51 606.093 1032.77 607.03 1032.71 607.973 1032.81 608.95 1032.55 609.931 1031.96 610.72Z" fill="#F2F2F2"/><path d="M1050.49 628.64 1051.13 626.533 1052.39 625.813 1054.55 626.773 1055.93 625.36 1055.93 625.2 1054.95 623.307 1055.53 621.973 1057.69 621.2 1057.93 621.2 1057.93 619.253 1057.67 619.253 1055.53 618.613 1054.84 617.387 1055.77 615.2 1054.36 613.84 1054.2 613.84 1052.31 614.8 1051 614 1050.15 611.627 1048.17 611.627 1048.17 611.92 1047.53 614.027 1046.17 614.613 1043.85 613.547 1042.49 614.96 1042.63 615.227 1043.64 617.2 1043.11 618.56 1040.6 619.333 1040.6 621.307 1040.89 621.307 1043 621.947 1043.59 623.307 1042.55 625.6 1043.96 626.987 1044.2 626.853 1046.17 625.84 1047.53 626.373 1048.44 628.747 1050.39 628.747ZM1047.29 622.347C1046.17 621.249 1046.16 619.453 1047.25 618.333 1048.35 617.214 1050.15 617.196 1051.27 618.293 1052.39 619.391 1052.4 621.188 1051.31 622.307 1050.21 623.426 1048.41 623.444 1047.29 622.347Z" fill="#949494"/></g></g></g><path d="M987 229.206C987 220.808 993.808 214 1002.21 214L1194.79 214C1203.19 214 1210 220.808 1210 229.206L1210 428.794C1210 437.192 1203.19 444 1194.79 444L1002.21 444C993.808 444 987 437.192 987 428.794Z" fill="#FFFFFF" fill-rule="evenodd"/><g clip-path="url(#clip42)"><g clip-path="url(#clip43)"><g clip-path="url(#clip44)"><path d="M1016.91 351.013 1028.43 351.013 1028.43 362.533 1016.91 362.533ZM1005.07 362.533 1014.99 362.533 1014.99 351.013 1003.47 351.013 1003.47 360.933C1003.47 361.817 1004.18 362.533 1005.07 362.533ZM1003.47 349.2 1014.99 349.2 1014.99 337.573 1003.47 337.573Z" fill="url(#fill45)"/><path d="M1032.67 317.467C1041.34 317.377 1048.44 324.336 1048.54 333.01 1048.54 333.162 1048.54 333.314 1048.53 333.467 1048.62 342.141 1041.66 349.245 1032.99 349.333 1032.88 349.334 1032.77 349.334 1032.67 349.333L1016.8 349.333 1016.8 333.333C1016.71 324.659 1023.67 317.555 1032.35 317.467 1032.45 317.466 1032.56 317.466 1032.67 317.467Z" fill="url(#fill46)" fill-rule="evenodd"/><path d="M1022.24 331.067 1025.87 331.067 1025.87 341.947 1022.24 341.947Z" fill="#FFFFFF"/><path d="M1029.49 334.693 1033.12 334.693 1033.12 341.947 1029.49 341.947Z" fill="#FFFFFF"/><path d="M1036.75 327.44 1040.37 327.44 1040.37 341.947 1036.75 341.947Z" fill="#FFFFFF"/></g></g></g><g clip-path="url(#clip47)"><g clip-path="url(#clip48)"><g clip-path="url(#clip49)"><path d="M1003.33 264.44 1048.67 264.44 1048.67 264.44 1048.67 289.72C1048.67 290.559 1047.99 291.24 1047.15 291.24L1004.85 291.24C1004.01 291.24 1003.33 290.559 1003.33 289.72L1003.33 264.44 1003.33 264.44Z" fill="url(#fill50)"/><path d="M1004.85 254.787 1047.15 254.787C1047.99 254.787 1048.67 255.467 1048.67 256.307L1048.67 264.44 1048.67 264.44 1003.33 264.44 1003.33 264.44 1003.33 256.28C1003.35 255.451 1004.02 254.787 1004.85 254.787Z" fill="#37C2B1"/><path d="M1009.49 267.373 1042.48 267.373C1042.87 267.388 1043.17 267.706 1043.17 268.093L1043.17 271.827C1043.17 272.214 1042.87 272.532 1042.48 272.547L1009.49 272.547C1009.11 272.532 1008.8 272.214 1008.8 271.827L1008.8 268.093C1008.8 267.706 1009.11 267.388 1009.49 267.373Z" fill="#FFFFFF"/><path d="M1009.52 274.813 1042.51 274.813C1042.89 274.828 1043.2 275.146 1043.2 275.533L1043.2 279.293C1043.2 279.681 1042.89 279.999 1042.51 280.013L1009.52 280.013C1009.13 279.999 1008.83 279.681 1008.83 279.293L1008.83 275.667C1008.75 275.276 1009.01 274.899 1009.4 274.826 1009.44 274.818 1009.48 274.814 1009.52 274.813Z" fill="#37C2B1"/><path d="M1009.52 282.333 1042.51 282.333C1042.89 282.348 1043.2 282.666 1043.2 283.053L1043.2 286.813C1043.2 287.201 1042.89 287.519 1042.51 287.533L1009.52 287.533C1009.13 287.519 1008.83 287.201 1008.83 286.813L1008.83 283.053C1008.83 282.666 1009.13 282.348 1009.52 282.333Z" fill="#258277"/></g></g></g><text font-family="Segoe UI,Segoe UI_MSFontService,sans-serif" font-weight="400" font-size="16" transform="translate(528.706 483)">asclab<tspan x="43.6667" y="0">-</tspan><tspan x="50" y="0">win</tspan><tspan font-size="19" x="-43.9519" y="-71">asclab</tspan><tspan font-size="19" x="7.21478" y="-71">-</tspan><tspan font-size="19" x="14.7148" y="-71">as</tspan><tspan x="-0.124512" y="75">asclab</tspan><tspan x="43.5422" y="75">-</tspan><tspan x="49.8755" y="75">linux</tspan><tspan x="-46.5549" y="136">asclab</tspan><tspan x="-2.88831" y="136">-</tspan><tspan x="3.44507" y="136">nsg</tspan><tspan x="538.095" y="53">asclab</tspan><tspan x="581.762" y="53">-</tspan><tspan x="588.095" y="53">db</tspan><tspan x="538.095" y="121">asclab</tspan><tspan x="581.762" y="121">-</tspan><tspan x="588.095" y="121">sql</tspan><tspan x="531.312" y="-145">asclab</tspan><tspan x="574.979" y="-145">-</tspan><tspan x="581.312" y="-145">la</tspan><tspan x="531.312" y="-214">asclabsa</tspan></text><g clip-path="url(#clip51)"><g clip-path="url(#clip52)"><g clip-path="url(#clip53)"><path d="M1027 380.333C1014.48 380.333 1004.33 390.482 1004.33 403 1004.33 415.518 1014.48 425.667 1027 425.667 1039.52 425.667 1049.67 415.518 1049.67 403 1049.65 390.488 1039.51 380.348 1027 380.333ZM1027 422.573C1016.19 422.573 1007.43 413.81 1007.43 403 1007.43 392.19 1016.19 383.427 1027 383.427 1037.81 383.427 1046.57 392.19 1046.57 403 1046.57 413.81 1037.81 422.573 1027 422.573Z" fill="url(#fill54)"/><path d="M1046.57 403C1046.57 413.81 1037.81 422.573 1027 422.573 1016.19 422.573 1007.43 413.81 1007.43 403 1007.43 392.19 1016.19 383.427 1027 383.427 1037.81 383.427 1046.57 392.19 1046.57 403Z" fill="#FFFFFF"/><path d="M1038.84 398.547C1040.73 396.634 1040.73 393.552 1038.84 391.64L1038.84 391.64 1030.44 383.213C1028.54 381.322 1025.46 381.322 1023.56 383.213L1023.56 383.213 1015.16 391.64C1013.27 393.552 1013.27 396.634 1015.16 398.547L1022.15 405.667C1022.4 405.921 1022.55 406.266 1022.55 406.627L1022.55 419.64C1022.55 420.079 1022.72 420.5 1023.03 420.813L1026.23 424.013C1026.65 424.441 1027.35 424.441 1027.77 424.014 1027.77 424.014 1027.77 424.014 1027.77 424.013L1030.87 420.92 1030.87 420.92 1032.68 419.107C1032.92 418.851 1032.92 418.456 1032.68 418.2L1031.37 416.893C1031.11 416.616 1031.11 416.184 1031.37 415.907L1032.68 414.6C1032.92 414.344 1032.92 413.949 1032.68 413.693L1031.37 412.387C1031.11 412.109 1031.11 411.677 1031.37 411.4L1032.68 410.093C1032.92 409.838 1032.92 409.442 1032.68 409.187L1030.87 407.347 1030.87 406.68ZM1027 385.267C1028.52 385.267 1029.76 386.502 1029.76 388.027 1029.76 389.551 1028.52 390.787 1027 390.787 1025.48 390.787 1024.24 389.551 1024.24 388.027 1024.24 386.502 1025.48 385.267 1027 385.267Z" fill="url(#fill55)"/><path d="M1024.81 419.8 1024.81 419.8C1025.07 420.021 1025.46 419.992 1025.68 419.735 1025.77 419.627 1025.82 419.49 1025.83 419.347L1025.83 408.68C1025.83 408.464 1025.71 408.263 1025.53 408.147L1025.53 408.147C1025.26 407.969 1024.9 408.045 1024.72 408.316 1024.65 408.423 1024.62 408.551 1024.63 408.68L1024.63 419.347C1024.64 419.514 1024.7 419.674 1024.81 419.8Z" fill="#FF9300" fill-opacity="0.75"/><path d="M1033.32 394.44C1033.73 394.44 1034.07 394.774 1034.07 395.187L1034.07 395.32C1034.07 395.732 1033.73 396.067 1033.32 396.067L1021.03 396.067C1020.61 396.067 1020.28 395.732 1020.28 395.32L1020.28 395.187C1020.28 394.774 1020.61 394.44 1021.03 394.44Z" fill="#FF9300" fill-opacity="0.75"/><path d="M1033.32 397.08C1033.73 397.08 1034.07 397.414 1034.07 397.827L1034.07 397.96C1034.07 398.372 1033.73 398.707 1033.32 398.707L1021.03 398.707C1020.61 398.707 1020.28 398.372 1020.28 397.96L1020.28 397.827C1020.28 397.414 1020.61 397.08 1021.03 397.08Z" fill="#FF9300" fill-opacity="0.75"/></g></g></g><text font-family="Segoe UI,Segoe UI_MSFontService,sans-serif" font-weight="400" font-size="16" transform="translate(1060.02 398)">asclab<tspan x="43.6666" y="0">-</tspan><tspan x="50" y="0">kv</tspan></text><g clip-path="url(#clip56)"><g clip-path="url(#clip57)"><g clip-path="url(#clip58)"><path d="M571.693 78.1733 592.813 91.88 614.307 78.12 617 81.2667 592.813 96.84 569 81.2667 571.693 78.1733Z" fill="#50E6FF"/><path d="M573.293 76.4133 592.813 53.16 612.733 76.44 592.813 89.0267 573.293 76.4133Z" fill="#FFFFFF"/><path d="M592.813 53.16 592.813 89.0267 573.293 76.4133 592.813 53.16Z" fill="#50E6FF"/><path d="M592.813 53.16 592.813 89.0267 612.733 76.44 592.813 53.16Z" fill="url(#fill59)"/><path d="M592.813 71.6933 612.733 76.44 592.813 89.0267 592.813 71.6933Z" fill="#53B1E0"/><path d="M592.813 89.0267 573.293 76.4133 592.813 71.6933 592.813 89.0267Z" fill="#9CEBFF"/><path d="M592.813 96.84 617 81.2667 614.307 78.12 592.813 91.88 592.813 96.84Z" fill="url(#fill60)"/></g></g></g><text font-family="Segoe UI,Segoe UI_MSFontService,sans-serif" font-weight="400" font-size="24" transform="translate(633.415 73)">[tenant<tspan x="74.98" y="0">-</tspan><tspan x="84.6467" y="0">prefix].</tspan>onmicrosoft.com<tspan fill="#595959" font-weight="700" font-size="12" x="67.81" y="26">Azure </tspan><tspan fill="#595959" font-weight="700" font-size="12" x="103.977" y="26">Active Directory </tspan><tspan fill="#595959" font-weight="700" font-size="12" x="198.643" y="26">Tenant</tspan></text><g clip-path="url(#clip61)"><g clip-path="url(#clip62)"><g clip-path="url(#clip63)"><path d="M181.332 68.752C181.332 87.036 158.828 101.752 153.932 104.752 153.359 105.1 152.641 105.1 152.068 104.752 147.172 101.764 124.668 87.048 124.668 68.752L124.668 46.752C124.672 45.7924 125.444 45.0131 126.404 45 143.912 44.544 139.88 37 153 37 166.12 37 162.088 44.544 179.596 45 180.551 45.013 181.321 45.7851 181.332 46.74Z" fill="#76BC2D"/><path d="M179 68.94C179 85.704 158.36 99.204 153.872 101.94 153.346 102.26 152.686 102.26 152.16 101.94 147.656 99.204 127 85.704 127 68.94L127 48.764C127 47.8804 127.716 47.164 128.6 47.164 144.664 46.74 140.968 39.82 153 39.82 165.032 39.82 161.336 46.74 177.4 47.168 178.284 47.168 179 47.8844 179 48.768Z" fill="url(#fill64)"/><path d="M164.412 65.64 162.78 65.64 162.78 59.972C162.794 57.293 161.794 54.7079 159.98 52.736 156.468 48.8888 150.502 48.617 146.655 52.129 146.444 52.322 146.241 52.5246 146.048 52.736 144.219 54.6968 143.216 57.287 143.248 59.968L143.248 65.64 141.588 65.64C140.879 65.6441 140.301 66.211 140.284 66.92L140.284 81.648C140.303 82.356 140.88 82.922 141.588 82.928L164.412 82.928C165.12 82.922 165.697 82.356 165.716 81.648L165.716 66.92C165.699 66.211 165.121 65.6441 164.412 65.64ZM158.216 65.64 147.8 65.64 147.8 59.876C147.814 58.3937 148.402 56.9745 149.44 55.916 151.208 53.941 154.243 53.7736 156.218 55.5419 156.349 55.6596 156.474 55.7845 156.592 55.916 156.82 56.1636 157.024 56.4314 157.204 56.716L157.204 56.716C157.851 57.6467 158.21 58.747 158.236 59.88Z" fill="#FFFFFF"/><path d="M141.592 65.632 164.412 65.632C164.721 65.6364 165.018 65.7498 165.252 65.952L140.752 82.6C140.461 82.3644 140.291 82.0104 140.288 81.636L140.288 66.916C140.303 66.2054 140.881 65.6362 141.592 65.632Z" fill="#B3B3B3" fill-opacity="0.15"/><path d="M164.412 65.632 141.588 65.632C141.28 65.6374 140.985 65.7506 140.752 65.952L165.248 82.6C165.54 82.3648 165.712 82.0112 165.716 81.636L165.716 66.916C165.699 66.2064 165.122 65.6383 164.412 65.632Z" fill="#A3A3A3" fill-opacity="0.09"/></g></g></g><text font-family="Segoe UI,Segoe UI_MSFontService,sans-serif" font-weight="400" font-size="24" transform="translate(39.474 142)">Azure Security Center<tspan x="22.4067" y="29">Labs </tspan>Architecture<tspan font-size="16" x="-24.395" y="250">Administrator: ascadmin</tspan><tspan font-size="16" x="-24.395" y="269">Network Address Space: 192.168.0.0/16</tspan><tspan font-size="16" x="-24.395" y="288">Subnet</tspan><tspan font-size="16" x="29.605" y="288">Address Space: 192.168.0.0/24</tspan></text><g clip-path="url(#clip65)"><g clip-path="url(#clip66)"><g clip-path="url(#clip67)"><path d="M759.813 282.808 766.717 278.613 786.064 285.896C785.642 284.017 784.673 282.304 783.28 280.973L783.253 280.84C781.627 279.269 779.563 278.228 777.333 277.853 777.03 270.641 770.947 265.034 763.733 265.32 758.007 265.216 752.837 268.731 750.827 274.093 744.752 274.835 740.142 279.922 740 286.04 740.275 292.976 746.102 298.387 753.04 298.147L759.813 298.147Z" fill="url(#fill68)"/><path d="M766.853 280.091 766.88 291.504 787.973 295.984 787.973 288.037 766.853 280.091Z" fill="#767676"/><path d="M766.853 280.091 761.147 283.557 761.147 294.171 766.88 291.504" fill="#999999"/><path d="M776.48 291.664 778.4 292.197 778.4 285.984 776.48 285.317 776.48 291.664Z" fill="#A3A3A3"/><path d="M774.56 284.704 772.64 284.011 772.64 290.651 774.56 291.184 774.56 284.704Z" fill="#A3A3A3"/><path d="M780.32 292.704 782.187 293.211 782.24 287.291 780.32 286.651 780.32 292.704Z" fill="#A3A3A3"/><path d="M768.827 289.664 770.747 290.144 770.747 283.397 768.827 282.757 768.827 289.664Z" fill="#A3A3A3"/><path d="M786.053 288.597 784.133 287.931 784.133 293.717 786.053 294.251 786.053 288.597Z" fill="#A3A3A3"/><path d="M763.093 291.317 762.133 291.877 762.133 284.331 763.093 283.824ZM764.987 282.731 764 283.371 764 290.704 764.987 290.171Z" fill="#B3B3B3"/><path d="M787.973 295.984 782.213 297.957 761.147 294.171 766.88 291.504 787.973 295.984Z" fill="url(#fill69)"/><path d="M787.973 304.117 766.773 308.144 766.88 293.237 787.973 297.157 787.973 304.117Z" fill="#767676"/><path d="M768.827 305.691 768.827 296.224 770.747 296.464 770.747 305.371 768.827 305.691Z" fill="#A3A3A3"/><path d="M774.56 304.731 772.64 305.077 772.64 296.704 774.56 296.997 774.56 304.731 774.56 304.731Z" fill="#A3A3A3"/><path d="M776.48 304.437 776.48 297.184 778.4 297.424 778.4 304.091 776.48 304.437Z" fill="#A3A3A3"/><path d="M782.213 303.424 780.32 303.771 780.32 297.664 782.213 297.957 782.213 303.424Z" fill="#A3A3A3"/><path d="M786.107 302.811 784.133 303.157 784.133 298.144 785.973 298.384 786.107 302.811Z" fill="#A3A3A3"/><path d="M761.147 304.733 761.147 296.04 766.907 293.373 766.907 308.307Z" fill="#999999"/><path d="M762.96 304.704 762.107 304.277 762.107 296.917 762.96 296.517ZM765.013 295.504 764 296.011 764 305.291 764.987 305.797 764.987 295.504Z" fill="#B3B3B3"/></g></g></g><text font-family="Segoe UI,Segoe UI_MSFontService,sans-serif" font-weight="400" font-size="16" transform="translate(735.588 330)">asclabcr<tspan fill="#595959" font-weight="700" font-size="12" x="-24.5709" y="20">Container Registry</tspan></text><g clip-path="url(#clip70)"><g clip-path="url(#clip71)"><g clip-path="url(#clip72)"><path d="M883.467 268.253 875.84 269.667 875.84 280.067 883.467 281.693 891.12 278.627 891.12 270.867 883.467 268.253Z" fill="url(#fill73)"/><path d="M875.84 269.667 875.84 280.067 883.547 281.693 883.547 268.36ZM879.093 279.267 876.933 278.84 876.933 270.84 879.093 270.493ZM882.453 279.88 879.973 279.48 879.973 270.333 882.453 269.907Z" fill="#341A6E"/><path d="M899.973 268.387 892.347 269.8 892.347 280.2 899.973 281.827 907.6 278.733 907.6 271 899.973 268.387Z" fill="url(#fill74)"/><path d="M892.347 269.8 892.347 280.2 900 281.827 900 268.493ZM895.573 279.4 893.413 278.973 893.413 270.973 895.573 270.627ZM898.933 280.013 896.453 279.613 896.453 270.467 898.933 270.013Z" fill="#341A6E"/><path d="M875.653 282.6 868.027 284.013 868.027 294.413 875.653 296.04 883.307 292.973 883.307 285.213 875.653 282.6Z" fill="url(#fill75)"/><path d="M868 284.013 868 294.333 875.707 295.96 875.707 282.627ZM871.227 293.64 869.067 293.187 869.067 285.187 871.227 284.813ZM874.613 294.333 872.133 293.933 872.133 284.68 874.613 284.253Z" fill="#341A6E"/><path d="M892.107 282.493 884.48 283.907 884.48 294.307 892.107 295.96 899.733 292.867 899.733 285.107 892.107 282.493Z" fill="url(#fill76)"/><path d="M884.48 283.907 884.48 294.333 892.16 295.96 892.16 282.627ZM887.707 293.533 885.547 293.08 885.547 285.08 887.707 284.707ZM891.067 294.12 888.587 293.72 888.587 284.573 891.067 284.147Z" fill="#341A6E"/><path d="M908.56 282.627 900.933 284.04 900.933 294.44 908.56 296.067 916.213 293 916.213 285.24 908.56 282.627Z" fill="url(#fill77)"/><path d="M900.933 284.04 900.933 294.333 908.64 295.96 908.64 282.627ZM904.187 293.667 902.027 293.213 902.027 285.213 904.187 284.84ZM907.547 294.253 905.067 293.853 905.067 284.707 907.547 284.28Z" fill="#341A6E"/><path d="M883.28 297.107 875.653 298.493 875.653 308.893 883.28 310.547 890.933 307.453 890.933 299.72 883.28 297.107Z" fill="url(#fill78)"/><path d="M875.653 298.493 875.653 308.893 883.36 310.547 883.36 297ZM878.907 308.12 876.747 307.667 876.747 299.667 878.907 299.293ZM882.267 308.733 879.787 308.333 879.787 299.16 882.267 298.733Z" fill="#341A6E"/><path d="M899.76 297.213 892.133 298.627 892.133 309.027 899.76 310.653 907.413 307.587 907.413 299.827 899.76 297.213Z" fill="url(#fill79)"/><path d="M892.133 298.627 892.133 309.027 899.84 310.653 899.84 297.32ZM895.387 308.253 893.227 307.8 893.227 299.8 895.387 299.427ZM898.747 308.84 896.267 308.44 896.267 299.293 898.747 298.867Z" fill="#341A6E"/></g></g></g><text font-family="Segoe UI,Segoe UI_MSFontService,sans-serif" font-weight="400" font-size="16" transform="translate(855.076 333)">asclab<tspan x="43.6667" y="0">-</tspan><tspan x="50" y="0">aks</tspan><tspan fill="#595959" font-weight="700" font-size="12" x="-24.2344" y="18">Managed Kubernetes</tspan><tspan fill="#595959" font-weight="700" font-size="12" x="-371.204" y="97">Availability Set</tspan><tspan fill="#595959" font-weight="700" font-size="12" x="-326.318" y="165">Virtual</tspan><tspan fill="#595959" font-weight="700" font-size="12" x="-284.984" y="165">Machin</tspan><tspan fill="#595959" font-weight="700" font-size="12" x="-243.318" y="165">e</tspan><tspan fill="#595959" font-weight="700" font-size="12" x="-326.303" y="239">Virtual Machine</tspan></text><path d="M449 440 449 558.401" stroke="#0078D4" stroke-width="2" stroke-miterlimit="8" stroke-dasharray="6 2" fill="none" fill-rule="evenodd"/><path d="M0 0 16.8717 0.27706" stroke="#0078D4" stroke-width="2" stroke-miterlimit="8" stroke-dasharray="6 2" fill="none" fill-rule="evenodd" transform="matrix(-1 -8.74228e-08 -8.74228e-08 1 465.872 483)"/><path d="M0 0 16.8717 0.27706" stroke="#0078D4" stroke-width="2" stroke-miterlimit="8" stroke-dasharray="6 2" fill="none" fill-rule="evenodd" transform="matrix(-1 -8.74228e-08 -8.74228e-08 1 464.872 557)"/><text fill="#595959" font-family="Segoe UI,Segoe UI_MSFontService,sans-serif" font-weight="700" transform="translate(481.313 633)">Network Security Group</text><g clip-path="url(#clip80)"><g clip-path="url(#clip81)"><g clip-path="url(#clip82)"><path d="M776.893 495.92C766.996 503.593 752.753 501.79 745.08 491.893 737.407 481.996 739.21 467.753 749.107 460.08L749.347 459.92C759.378 452.432 773.581 454.494 781.07 464.526 788.432 474.389 786.578 488.325 776.893 495.92" fill="url(#fill83)"/><path d="M756.84 473.28C763.251 467.182 771.752 463.767 780.6 463.733 779.438 462.296 778.103 461.006 776.627 459.893 772.322 460.159 768.094 461.151 764.12 462.827 760.029 464.584 756.33 467.141 753.24 470.347 754.725 470.91 755.988 471.939 756.84 473.28Z" fill="#FFFFFF" fill-opacity="0.6"/><path d="M745.613 482.4C744.697 484.669 743.957 487.004 743.4 489.387 743.892 490.243 744.445 491.062 745.053 491.84 745.533 492.453 745.987 493.013 746.52 493.573 747.164 490.399 748.129 487.299 749.4 484.32 747.976 484.066 746.66 483.398 745.613 482.4Z" fill="#FFFFFF" fill-opacity="0.6"/><path d="M748.227 470.293C747.286 467.768 746.667 465.134 746.387 462.453 745.268 463.629 744.284 464.926 743.453 466.32 743.754 468.48 744.263 470.605 744.973 472.667 745.809 471.581 746.938 470.758 748.227 470.293Z" fill="#F2F2F2" fill-opacity="0.55"/><path d="M757.96 477.147C757.96 481.167 754.701 484.427 750.68 484.427 746.659 484.427 743.4 481.167 743.4 477.147 743.4 473.126 746.659 469.867 750.68 469.867 754.701 469.867 757.96 473.126 757.96 477.147Z" fill="url(#fill84)"/><path d="M761.293 490.453C761.295 489.176 761.815 487.954 762.733 487.067 760.275 485.719 758.006 484.051 755.987 482.107 754.931 483.248 753.54 484.024 752.013 484.32 753.216 485.551 754.509 486.692 755.88 487.733 757.587 489.023 759.419 490.139 761.347 491.067 761.316 490.863 761.298 490.659 761.293 490.453Z" fill="#F2F2F2" fill-opacity="0.55"/><path d="M778.093 491.013C775.615 491.015 773.145 490.729 770.733 490.16 770.746 490.257 770.746 490.356 770.733 490.453 770.737 491.692 770.248 492.882 769.373 493.76 772.374 494.355 775.438 494.57 778.493 494.4 779.678 493.328 780.742 492.13 781.667 490.827 780.48 490.958 779.287 491.021 778.093 491.013Z" fill="#F2F2F2" fill-opacity="0.55"/><path d="M770.76 490.453C770.76 493.075 768.635 495.2 766.013 495.2 763.392 495.2 761.267 493.075 761.267 490.453 761.267 487.832 763.392 485.707 766.013 485.707 768.635 485.707 770.76 487.832 770.76 490.453Z" fill="url(#fill85)"/><path d="M771.853 477.813C772.089 476.77 772.66 475.833 773.48 475.147 769.089 471.955 765.096 468.248 761.587 464.107 759.541 461.705 757.754 459.095 756.253 456.32 755.257 456.619 754.286 456.993 753.347 457.44 754.952 460.461 756.874 463.304 759.08 465.92 762.829 470.398 767.119 474.393 771.853 477.813Z" fill="#F2F2F2" fill-opacity="0.7"/><path d="M781.853 478.72C781.853 481.504 779.597 483.76 776.813 483.76 774.03 483.76 771.773 481.504 771.773 478.72 771.773 475.936 774.03 473.68 776.813 473.68 779.597 473.68 781.853 475.936 781.853 478.72Z" fill="url(#fill86)"/><path d="M785.267 482.107 784.333 481.653 784.333 481.653 783.533 481.227 783.373 481.227 782.68 480.667 782.493 480.667 781.667 480.133C781.38 481.115 780.781 481.977 779.96 482.587 780.28 482.8 780.627 482.987 780.973 483.173L781.187 483.307 782.12 483.813 782.12 483.813 784.413 485.013 784.413 485.013C784.737 484.045 784.995 483.056 785.187 482.053Z" fill="#F2F2F2" fill-opacity="0.55"/><path d="M757.96 477.147C757.96 481.167 754.701 484.427 750.68 484.427 746.659 484.427 743.4 481.167 743.4 477.147 743.4 473.126 746.659 469.867 750.68 469.867 754.701 469.867 757.96 473.126 757.96 477.147Z" fill="url(#fill87)"/><path d="M770.76 490.453C770.76 493.075 768.635 495.2 766.013 495.2 763.392 495.2 761.267 493.075 761.267 490.453 761.267 487.832 763.392 485.707 766.013 485.707 768.635 485.707 770.76 487.832 770.76 490.453Z" fill="url(#fill88)"/></g></g></g><text font-family="Segoe UI,Segoe UI_MSFontService,sans-serif" font-weight="400" font-size="16" transform="translate(723.456 525)">asclab<tspan x="43.6666" y="0">-</tspan><tspan x="50" y="0">app</tspan><tspan fill="#595959" font-weight="700" font-size="12" x="4.96478" y="17">App Service</tspan></text><g clip-path="url(#clip89)"><g clip-path="url(#clip90)"><g clip-path="url(#clip91)"><path d="M834.16 609.147C834.175 609.971 833.518 610.652 832.694 610.667 832.676 610.667 832.658 610.667 832.64 610.667L809.04 610.667C808.215 610.667 807.547 609.998 807.546 609.174 807.546 609.165 807.547 609.156 807.547 609.147L807.547 566.853C807.532 566.029 808.188 565.348 809.013 565.334 809.022 565.333 809.031 565.333 809.04 565.333L832.667 565.333C833.491 565.318 834.172 565.975 834.187 566.799 834.187 566.817 834.187 566.835 834.187 566.853Z" fill="url(#fill92)"/><path d="M811.333 581.227C811.332 579.636 812.62 578.345 814.21 578.344 814.256 578.344 814.301 578.345 814.347 578.347L827.68 578.347C829.239 578.39 830.481 579.667 830.48 581.227L830.48 581.227C830.495 582.817 829.217 584.118 827.627 584.133 827.618 584.133 827.609 584.133 827.6 584.133L814.267 584.133C812.661 584.148 811.348 582.859 811.333 581.253 811.333 581.245 811.333 581.236 811.333 581.227Z" fill="#003067"/><path d="M811.333 572.64C811.332 571.035 812.633 569.732 814.238 569.731 814.274 569.731 814.31 569.732 814.347 569.733L827.68 569.733C829.25 569.777 830.495 571.07 830.48 572.64L830.48 572.64C830.48 574.231 829.191 575.52 827.6 575.52L814.267 575.52C812.676 575.549 811.363 574.284 811.334 572.694 811.333 572.676 811.333 572.658 811.333 572.64Z" fill="#003067"/><path d="M816.4 572.64C816.4 573.715 815.528 574.587 814.453 574.587 813.378 574.587 812.507 573.715 812.507 572.64 812.507 571.565 813.378 570.693 814.453 570.693 815.528 570.693 816.4 571.565 816.4 572.64Z" fill="#50E6FF"/><path d="M816.4 581.227C816.4 582.302 815.528 583.173 814.453 583.173 813.378 583.173 812.507 582.302 812.507 581.227 812.507 580.152 813.378 579.28 814.453 579.28 815.528 579.28 816.4 580.152 816.4 581.227Z" fill="#50E6FF"/><path d="M852.453 602.347C852.34 598.304 849.336 594.928 845.333 594.347 845.145 588.621 840.394 584.108 834.667 584.213 830.094 584.144 825.985 586.997 824.453 591.307 819.619 591.938 815.971 596.006 815.867 600.88 816.012 606.422 820.617 610.801 826.16 610.667L827.067 610.667 843.76 610.667 844.213 610.667C848.759 610.58 852.411 606.893 852.453 602.347Z" fill="url(#fill93)"/></g></g></g><text font-family="Segoe UI,Segoe UI_MSFontService,sans-serif" font-weight="400" font-size="16" transform="translate(785.859 630)">asclab<tspan x="43.6667" y="0">-</tspan><tspan x="50" y="0">splan</tspan><tspan fill="#595959" font-weight="700" font-size="12" x="-3.87073" y="17">App Service Plan</tspan></text><g clip-path="url(#clip94)"><g clip-path="url(#clip95)"><g clip-path="url(#clip96)"><path d="M886.774 487.947 885.212 489.514C884.934 489.793 884.483 489.793 884.205 489.516L872.596 477.939C872.04 477.385 872.038 476.485 872.593 475.929L874.163 474.354 874.163 474.354 886.781 486.936C887.059 487.214 887.06 487.665 886.782 487.943Z" fill="#50E6FF"/><path d="M884.969 464.48 886.542 466.048C886.82 466.326 886.821 466.777 886.543 467.055L874.148 479.486 874.148 479.486 872.573 477.915C872.017 477.361 872.016 476.461 872.57 475.905L883.966 464.477C884.244 464.202 884.692 464.203 884.969 464.48Z" fill="#1490DF"/><path d="M917.839 474.365 919.408 475.938C919.962 476.494 919.961 477.394 919.405 477.948L907.795 489.525C907.517 489.802 907.066 489.802 906.789 489.523L905.228 487.958C904.95 487.679 904.951 487.229 905.229 486.951L917.845 474.371 917.845 474.371Z" fill="#50E6FF"/><path d="M919.419 477.908 917.846 479.477 917.846 479.477 905.45 467.046C905.172 466.768 905.173 466.317 905.452 466.039L907.025 464.471C907.303 464.193 907.754 464.194 908.031 464.472L919.427 475.9C919.981 476.456 919.98 477.356 919.424 477.91Z" fill="#1490DF"/><path d="M894.557 479.4 884.987 479.4C884.707 479.411 884.471 479.196 884.453 478.917 884.453 478.848 884.47 478.779 884.501 478.717L895.976 456.013C896.076 455.834 896.267 455.725 896.472 455.731L907.792 455.731C908.071 455.72 908.308 455.934 908.325 456.213 908.324 456.31 908.291 456.404 908.232 456.48L894.757 474.243 907.899 474.243C908.178 474.232 908.415 474.446 908.432 474.725 908.43 474.848 908.38 474.964 908.293 475.051L886.456 497.768C886.251 497.891 884.792 499.101 885.507 497.264L885.507 497.264Z" fill="url(#fill97)"/></g></g></g><text font-family="Segoe UI,Segoe UI_MSFontService,sans-serif" font-weight="400" font-size="16" transform="translate(864.442 524)">asclab<tspan x="43.6667" y="0">-</tspan><tspan x="50" y="0">fa</tspan><tspan fill="#595959" font-weight="700" font-size="12" x="-9.25616" y="19">Functions App</tspan></text><path d="M895 552 895 598.326" stroke="#0078D4" stroke-width="2" stroke-miterlimit="8" stroke-dasharray="6 2" fill="none" fill-rule="evenodd"/><path d="M858 598 897 598" stroke="#0078D4" stroke-width="2" stroke-miterlimit="8" stroke-dasharray="6 2" fill="none" fill-rule="evenodd"/><path d="M761 552 761 598.326" stroke="#0078D4" stroke-width="2" stroke-miterlimit="8" stroke-dasharray="6 2" fill="none" fill-rule="evenodd"/><path d="M761 598 800 598" stroke="#0078D4" stroke-width="2" stroke-miterlimit="8" stroke-dasharray="6 2" fill="none" fill-rule="evenodd"/><text fill="#595959" font-family="Segoe UI,Segoe UI_MSFontService,sans-serif" font-weight="700" transform="translate(1060.02 284)">Storage Account<tspan x="0" y="70">Log Analytics Workspace</tspan><tspan x="0" y="131">Key Vault</tspan><tspan x="6.78333" y="270">SQL Database</tspan><tspan x="6.78333" y="337">SQL </tspan><tspan x="32.1167" y="337">Server</tspan><tspan fill="#0078D4" font-weight="400" font-size="16" x="-674.251" y="-23">Compute </tspan><tspan fill="#0078D4" font-weight="400" font-size="16" x="-604.877" y="-23">Services</tspan><tspan fill="#0078D4" font-weight="400" font-size="16" x="-357.081" y="157">App </tspan><tspan fill="#0078D4" font-weight="400" font-size="16" x="-323.748" y="157">Services</tspan><tspan fill="#0078D4" font-weight="400" font-size="16" x="-63.1664" y="204">Database </tspan><tspan fill="#0078D4" font-weight="400" font-size="16" x="6.62024" y="204">Services</tspan><tspan fill="#0078D4" font-weight="400" font-size="16" x="-62.5269" y="-48">Security, Storage, Analytics</tspan></text></g></svg>