<?xml version="1.0" encoding="UTF-8" standalone="no"?>
<!DOCTYPE svg PUBLIC "-//W3C//DTD SVG 1.1//EN" "http://www.w3.org/Graphics/SVG/1.1/DTD/svg11.dtd">
<!-- Generated by Microsoft Visio, SVG Export ascvmsconnection-image.svg Page-1 -->
<svg xmlns="http://www.w3.org/2000/svg" xmlns:xlink="http://www.w3.org/1999/xlink" xmlns:ev="http://www.w3.org/2001/xml-events"
		xmlns:v="http://schemas.microsoft.com/visio/2003/SVGExtensions/" width="7.15313in" height="4.91526in"
		viewBox="0 0 515.025 353.898" xml:space="preserve" color-interpolation-filters="sRGB" class="st25">
	<v:documentProperties v:langID="1033" v:metric="true" v:viewMarkup="false">
		<v:userDefs>
			<v:ud v:nameU="msvNoAutoConnect" v:val="VT0(1):26"/>
		</v:userDefs>
	</v:documentProperties>

	<style type="text/css">
	<![CDATA[
		.st1 {fill:none;stroke:#0070c0;stroke-dasharray:3.5,2.5;stroke-linecap:round;stroke-linejoin:round;stroke-width:0.5}
		.st2 {fill:#7f7f7f;font-family:Calibri;font-size:0.499992em}
		.st3 {fill:#0078d7}
		.st4 {stroke:none;stroke-linecap:round;stroke-linejoin:round;stroke-width:0.75}
		.st5 {fill:none;stroke:#4bacc6;stroke-dasharray:0.5,1;stroke-linecap:round;stroke-linejoin:round;stroke-width:0.5}
		.st6 {fill:#0078d7;stroke:none;stroke-linecap:round;stroke-linejoin:round;stroke-width:0.75}
		.st7 {font-size:1em}
		.st8 {marker-start:url(#mrkr1-89);stroke:#7f7f7f;stroke-linecap:round;stroke-linejoin:round;stroke-width:0.25}
		.st9 {fill:#7f7f7f;fill-opacity:1;stroke:#7f7f7f;stroke-opacity:1;stroke-width:0.090252707581227}
		.st10 {fill:#ffffff;stroke:none;stroke-linecap:butt;stroke-width:7.2}
		.st11 {stroke:#7f7f7f;stroke-linecap:round;stroke-linejoin:round;stroke-width:0.25}
		.st12 {marker-end:url(#mrkr1-109);stroke:#7f7f7f;stroke-linecap:round;stroke-linejoin:round;stroke-width:0.25}
		.st13 {fill:#ffffff;stroke:#4bacc6;stroke-dasharray:0.9444,1.8888;stroke-linecap:round;stroke-linejoin:round;stroke-width:0.9444}
		.st14 {fill:#ffffff;stroke:#000000;stroke-linecap:round;stroke-linejoin:round;stroke-width:0.75}
		.st15 {fill:#000000}
		.st16 {stroke:#000000;stroke-dasharray:5.25,3.75;stroke-linecap:round;stroke-linejoin:round;stroke-width:0.75}
		.st17 {marker-start:url(#mrkr1-133);stroke:#7f7f7f;stroke-linecap:round;stroke-linejoin:round;stroke-width:0.5}
		.st18 {fill:#7f7f7f;fill-opacity:1;stroke:#7f7f7f;stroke-opacity:1;stroke-width:0.16556291390728}
		.st19 {fill:#ffffff;stroke:#4bacc6;stroke-dasharray:0.75,1.5;stroke-linecap:round;stroke-linejoin:round;stroke-width:0.75}
		.st20 {fill:#0070c0;stroke:none;stroke-linecap:round;stroke-linejoin:round;stroke-width:0.75}
		.st21 {marker-end:url(#mrkr1-181);stroke:#7f7f7f;stroke-linecap:round;stroke-linejoin:round;stroke-width:0.5}
		.st22 {fill:#3f3f3f;stroke:none;stroke-linecap:round;stroke-linejoin:round;stroke-width:0.75}
		.st23 {fill:#9dbb61;stroke:none;stroke-linecap:round;stroke-linejoin:round;stroke-width:0.75}
		.st24 {fill:#ffffff;font-family:Calibri;font-size:0.250008em}
		.st25 {fill:none;fill-rule:evenodd;font-size:12px;overflow:visible;stroke-linecap:square;stroke-miterlimit:3}
	]]>
	</style>

	<defs id="Markers">
		<g id="lend1">
			<path d="M 1 -1 L 0 0 L 1 1 " style="stroke-linecap:round;stroke-linejoin:round;fill:none"/>
		</g>
		<marker id="mrkr1-89" class="st9" v:arrowType="1" v:arrowSize="2" orient="auto" markerUnits="strokeWidth"
				overflow="visible">
			<use xlink:href="#lend1" transform="scale(11.08) "/>
		</marker>
		<marker id="mrkr1-109" class="st9" v:arrowType="1" v:arrowSize="2" orient="auto" markerUnits="strokeWidth"
				overflow="visible">
			<use xlink:href="#lend1" transform="scale(-11.08,-11.08) "/>
		</marker>
		<marker id="mrkr1-133" class="st18" v:arrowType="1" v:arrowSize="2" orient="auto" markerUnits="strokeWidth"
				overflow="visible">
			<use xlink:href="#lend1" transform="scale(6.04) "/>
		</marker>
		<marker id="mrkr1-181" class="st18" v:arrowType="1" v:arrowSize="2" orient="auto" markerUnits="strokeWidth"
				overflow="visible">
			<use xlink:href="#lend1" transform="scale(-6.04,-6.04) "/>
		</marker>
	</defs>
	<g v:mID="0" v:index="1" v:groupContext="foregroundPage">
		<title>Page-1</title>
		<v:pageProperties v:drawingScale="0.0393701" v:pageScale="0.0393701" v:drawingUnits="24" v:shadowOffsetX="8.50394"
				v:shadowOffsetY="-8.50394"/>
		<v:layer v:name="Azure" v:index="0"/>
		<v:layer v:name="Connector" v:index="1"/>
		<g id="shape2-1" v:mID="2" v:groupContext="shape" transform="translate(374.22,-288.567)">
			<title>Sheet.2</title>
			<desc>Azure Security Center</desc>
			<v:textBlock v:margins="rect(4,4,4,4)" v:tabSpace="42.5197"/>
			<v:textRect cx="40.3937" cy="332.639" width="80.79" height="42.5197"/>
			<path d="M0 353.9 L80.79 353.9 L80.79 311.38 L0 311.38 L0 353.9 Z" class="st1"/>
			<text x="13.98" y="334.44" class="st2" v:langID="2058"><v:paragraph v:horizAlign="1"/><v:tabList/>Azure Security Center</text>		</g>
		<g id="shape4-4" v:mID="4" v:groupContext="shape" v:layerMember="0" transform="translate(447.354,-284.979)">
			<title>Security Center</title>
			<path d="M8.2 342.23 C5.3 341.9 4.82 340.65 4.82 340.65 C4.82 340.65 4.17 342.3 0 342.3 L0 349.09 C0 349.91 0.45 350.68
						 1.08 351.35 C2.5 352.87 4.82 353.9 4.82 353.9 C4.82 353.9 9.64 351.77 9.64 349.09 L9.64 342.3 C9.1 342.3
						 8.63 342.27 8.2 342.23 ZM4.36 347.13 L3.96 347.13 L3.96 346.19 C3.96 345.92 4.06 345.68 4.22 345.51 C4.38
						 345.34 4.59 345.24 4.82 345.24 C5.05 345.24 5.26 345.34 5.42 345.51 C5.45 345.55 5.49 345.59 5.52 345.64
						 C5.62 345.79 5.68 345.98 5.68 346.19 L5.68 347.13 L4.36 347.13 L4.36 347.13 ZM4.36 347.13 L4.36 347.13 L4.36
						 347.13 ZM5.52 345.64 L5.52 345.64 L5.52 345.64 ZM6.73 347.13 L6.45 347.13 L6.45 346.19 C6.45 345.73 6.28
						 345.32 6.01 345.01 C6 345 5.99 344.98 5.98 344.97 C5.69 344.66 5.28 344.46 4.82 344.46 C4.36 344.46 3.95
						 344.66 3.66 344.97 C3.36 345.29 3.19 345.72 3.19 346.19 L3.19 347.13 L2.91 347.13 C2.79 347.13 2.7 347.22
						 2.7 347.34 L2.7 349.83 C2.7 349.95 2.79 350.04 2.91 350.04 L6.73 350.04 C6.85 350.04 6.94 349.95 6.94 349.83
						 L6.94 347.34 C6.94 347.22 6.85 347.13 6.73 347.13 Z" class="st3"/>
			<path d="M8.2 342.23 C5.3 341.9 4.82 340.65 4.82 340.65 C4.82 340.65 4.17 342.3 0 342.3 L0 349.09 C0 349.91 0.45 350.68
						 1.08 351.35 C2.5 352.87 4.82 353.9 4.82 353.9 C4.82 353.9 9.64 351.77 9.64 349.09 L9.64 342.3 C9.1 342.3
						 8.63 342.27 8.2 342.23M4.36 347.13 L3.96 347.13 L3.96 346.19 C3.96 345.92 4.06 345.68 4.22 345.51 C4.38
						 345.34 4.59 345.24 4.82 345.24 C5.05 345.24 5.26 345.34 5.42 345.51 C5.45 345.55 5.49 345.59 5.52 345.64
						 C5.62 345.79 5.68 345.98 5.68 346.19 L5.68 347.13 L4.36 347.13M4.36 347.13 L4.36 347.13M5.52 345.64 L5.52
						 345.64M6.73 347.13 L6.45 347.13 L6.45 346.19 C6.45 345.73 6.28 345.32 6.01 345.01 C6 345 5.99 344.98 5.98
						 344.97 C5.69 344.66 5.28 344.46 4.82 344.46 C4.36 344.46 3.95 344.66 3.66 344.97 C3.36 345.29 3.19 345.72
						 3.19 346.19 L3.19 347.13 L2.91 347.13 C2.79 347.13 2.7 347.22 2.7 347.34 L2.7 349.83 C2.7 349.95 2.79 350.04
						 2.91 350.04 L6.73 350.04 C6.85 350.04 6.94 349.95 6.94 349.83 L6.94 347.34 C6.94 347.22 6.85 347.13 6.73
						 347.13" class="st4"/>
		</g>
		<g id="shape5-7" v:mID="5" v:groupContext="shape" transform="translate(204.141,-174.263)">
			<title>Sheet.5</title>
			<path d="M0 353.9 L282.05 353.9 L282.05 192.51 L0 192.51 L0 353.9 Z" class="st5"/>
		</g>
		<g id="group6-9" transform="translate(464.929,-163.869)" v:mID="6" v:groupContext="group" v:layerMember="0">
			<title>Microsoft Azure</title>
			<desc>Microsoft Azure</desc>
			<g id="shape7-10" v:mID="7" v:groupContext="shape" v:layerMember="0" transform="translate(-1.57874E-13,-4.8382)">
				<title>Sheet.7</title>
				<path d="M18.56 349.76 C17.74 349.76 17.06 350.27 16.73 351 L5.12 351 C3.16 351 1.55 349.37 1.55 347.32 C1.55 345.29
							 3.13 343.63 5.12 343.63 L5.14 343.63 L5.17 343.63 L6.77 343.63 C6.86 343.21 6.97 342.79 7.13 342.42
							 C7.18 342.28 7.26 342.14 7.35 342 C8.16 340.54 9.69 339.55 11.45 339.55 C13.01 339.55 14.39 340.34 15.26
							 341.55 C15.75 341.32 16.27 341.13 16.81 341.02 C15.7 339.16 13.71 337.95 11.45 337.95 C8.82 337.95 6.53
							 339.64 5.6 342.03 C5.6 342.03 5.6 342.06 5.6 342.06 C5.6 342.06 5.6 342.03 5.6 342.03 L5.14 342.03 C2.31
							 342.03 0 344.39 0 347.34 C0 350.3 2.29 352.66 5.14 352.66 L16.76 352.66 C17.06 353.39 17.77 353.9 18.58
							 353.9 C19.67 353.9 20.57 353 20.57 351.84 C20.57 350.69 19.64 349.76 18.56 349.76 Z" class="st6"/>
			</g>
			<g id="shape8-12" v:mID="8" v:groupContext="shape" v:layerMember="0" transform="translate(6.66612,1.13687E-13)">
				<title>Sheet.8</title>
				<path d="M18.26 340.87 C17.09 338.46 14.67 336.77 11.89 336.77 C8.49 336.77 5.66 339.21 4.95 342.51 C3.29 342.67
							 1.88 343.57 0.95 344.93 L9.41 344.93 C9.99 344.17 10.88 343.69 11.89 343.69 C13.63 343.69 15.05 345.15
							 15.05 346.95 C15.05 348.75 13.63 350.21 11.89 350.21 C10.88 350.21 10.01 349.74 9.41 348.98 L0 348.98
							 C0.38 351.76 2.69 353.9 5.47 353.9 C5.47 353.9 5.5 353.9 5.5 353.9 L18.18 353.9 C18.18 353.9 18.2 353.9
							 18.2 353.9 C21.69 353.9 24.51 350.97 24.51 347.37 C24.51 343.8 21.71 340.9 18.26 340.87 Z" class="st6"/>
			</g>
			<g id="shape6-14" v:mID="6" v:groupContext="groupContent" v:layerMember="0">
				<v:textBlock v:margins="rect(4,4,4,4)" v:tabSpace="42.5197"/>
				<v:textRect cx="15.5906" cy="365.1" width="33.02" height="22.4034"/>
				<text x="3.77" y="363.3" class="st2" v:langID="16393"><v:paragraph v:horizAlign="1"/><v:tabList/>Microsoft<v:newlineChar/><tspan
							x="7.88" dy="1.2em" class="st7"> </tspan>Azure</text>			</g>
		</g>
		<g id="group9-17" transform="translate(276.992,-278.53)" v:mID="9" v:groupContext="group" v:layerMember="0">
			<title>Virtual Machine</title>
			<g id="shape10-18" v:mID="10" v:groupContext="shape" v:layerMember="0" transform="translate(6.31075,-7.57176)">
				<title>Sheet.10</title>
				<path d="M0 353.9 L7.28 353.9 L7.28 348.56 L0 348.56 L0 353.9 ZM5.24 352.34 L3.87 353.21 L3.87 351.48 L5.24 350.62
							 L5.24 352.34 ZM3.75 349.51 L5.12 350.38 L3.76 351.24 L2.38 350.37 L3.75 349.51 ZM2.25 350.61 L3.62 351.47
							 L3.62 353.2 L2.25 352.34 L2.25 350.61 Z" class="st6"/>
			</g>
			<g id="shape11-20" v:mID="11" v:groupContext="shape" v:layerMember="0">
				<title>Sheet.11</title>
				<path d="M18.43 337.03 L0.85 337.03 C0.38 337.03 0 337.45 0 337.96 L0 352.97 C0 353.48 0.38 353.9 0.85 353.9 L18.43
							 353.9 C18.9 353.9 19.28 353.48 19.28 352.97 L19.28 337.96 C19.28 337.45 18.9 337.03 18.43 337.03 ZM9.57
							 350.99 L9.04 352.74 C9.03 352.76 9.03 352.77 9.02 352.78 C9.01 352.79 9 352.8 8.98 352.8 C8.97 352.81
							 8.94 352.81 8.92 352.81 C8.89 352.82 8.85 352.82 8.8 352.82 C8.77 352.82 8.74 352.82 8.71 352.82 C8.68
							 352.82 8.66 352.81 8.64 352.81 C8.62 352.81 8.61 352.81 8.6 352.8 C8.58 352.8 8.58 352.79 8.57 352.79
							 C8.56 352.78 8.55 352.77 8.55 352.77 C8.54 352.76 8.54 352.75 8.54 352.73 L8 350.99 C7.99 350.96 7.98
							 350.93 7.98 350.91 C7.98 350.88 7.98 350.87 8 350.86 C8.01 350.85 8.03 350.84 8.05 350.84 C8.08 350.83
							 8.12 350.83 8.17 350.83 C8.21 350.83 8.25 350.83 8.27 350.84 C8.3 350.84 8.31 350.84 8.33 350.85 C8.34
							 350.85 8.35 350.86 8.35 350.87 C8.36 350.88 8.36 350.89 8.37 350.91 L8.81 352.42 L8.81 352.42 L9.24
							 350.92 C9.24 350.9 9.24 350.88 9.25 350.87 C9.26 350.86 9.26 350.85 9.28 350.85 C9.29 350.84 9.31 350.84
							 9.34 350.84 C9.36 350.83 9.39 350.83 9.44 350.83 C9.48 350.83 9.51 350.84 9.54 350.84 C9.56 350.84 9.58
							 350.85 9.59 350.86 C9.6 350.87 9.6 350.89 9.59 350.91 C9.59 350.93 9.59 350.96 9.57 350.99 ZM11.92 352.75
							 C11.92 352.76 11.92 352.77 11.91 352.78 C11.91 352.79 11.9 352.8 11.88 352.8 C11.87 352.81 11.85 352.81
							 11.83 352.81 C11.81 352.82 11.78 352.82 11.75 352.82 C11.71 352.82 11.69 352.82 11.66 352.81 C11.64
							 352.81 11.62 352.81 11.61 352.8 C11.6 352.8 11.59 352.79 11.58 352.78 C11.58 352.77 11.57 352.76 11.57
							 352.75 L11.57 351.15 L11.57 351.15 L11.05 352.75 C11.05 352.77 11.04 352.78 11.03 352.79 C11.02 352.79
							 11.01 352.8 11 352.81 C10.98 352.81 10.97 352.81 10.94 352.82 C10.92 352.82 10.89 352.82 10.86 352.82
							 C10.83 352.82 10.8 352.82 10.78 352.81 C10.76 352.81 10.74 352.81 10.73 352.8 C10.71 352.8 10.7 352.79
							 10.69 352.78 C10.68 352.77 10.68 352.76 10.68 352.75 L10.17 351.15 L10.17 351.15 L10.17 352.75 C10.17
							 352.76 10.17 352.77 10.16 352.78 C10.16 352.79 10.15 352.8 10.13 352.8 C10.12 352.81 10.1 352.81 10.08
							 352.81 C10.06 352.82 10.03 352.82 10 352.82 C9.96 352.82 9.94 352.82 9.91 352.81 C9.89 352.81 9.87 352.81
							 9.86 352.8 C9.85 352.8 9.84 352.79 9.83 352.78 C9.83 352.77 9.82 352.76 9.82 352.75 L9.82 351 C9.82
							 350.95 9.84 350.91 9.86 350.88 C9.89 350.86 9.92 350.84 9.96 350.84 L10.2 350.84 C10.24 350.84 10.28
							 350.85 10.31 350.85 C10.34 350.86 10.37 350.88 10.39 350.89 C10.41 350.91 10.43 350.93 10.45 350.96
							 C10.46 350.99 10.47 351.03 10.48 351.07 L10.87 352.24 L10.88 352.24 L11.28 351.07 C11.29 351.03 11.31
							 350.99 11.32 350.96 C11.33 350.94 11.35 350.91 11.37 350.89 C11.39 350.88 11.41 350.86 11.44 350.85
							 C11.46 350.85 11.49 350.84 11.53 350.84 L11.77 350.84 C11.8 350.84 11.82 350.85 11.84 350.85 C11.86
							 350.86 11.87 350.87 11.88 350.88 C11.89 350.9 11.9 350.91 11.91 350.94 C11.92 350.96 11.92 350.98 11.92
							 351 L11.92 352.75 L11.92 352.75 ZM14.18 346.47 C14.18 346.75 13.98 346.98 13.72 346.98 L11.08 346.98
							 C10.82 348.11 10.94 348.25 12.73 348.25 L12.73 348.71 L10.65 348.71 L9.13 348.71 L7.17 348.71 L7.17
							 348.25 C8.78 348.25 9.04 348.11 8.79 346.98 L6.18 346.98 C5.92 346.98 5.72 346.75 5.72 346.47 L5.72
							 340.85 C5.72 340.57 5.92 340.34 6.18 340.34 L13.72 340.34 C13.98 340.34 14.18 340.57 14.18 340.85 L14.18
							 346.47 L14.18 346.47 Z" class="st6"/>
			</g>
		</g>
		<g id="shape12-22" v:mID="12" v:groupContext="shape" v:layerMember="0" transform="translate(317.527,-201.003)">
			<title>VM Scale Set</title>
			<path d="M12.18 345.48 C12.2 345.48 12.21 345.48 12.22 345.47 L14.8 344 C14.83 343.98 14.84 343.96 14.84 343.93 C14.84
						 343.9 14.83 343.88 14.8 343.86 L12.2 342.37 C12.18 342.36 12.15 342.36 12.13 342.37 L9.55 343.85 C9.52 343.86
						 9.51 343.89 9.51 343.92 C9.51 343.95 9.52 343.97 9.55 343.99 L12.14 345.47 C12.16 345.48 12.17 345.48 12.18
						 345.48 ZM11.81 349.1 C11.82 349.1 11.84 349.1 11.85 349.09 C11.87 349.07 11.89 349.05 11.89 349.02 L11.89
						 346.05 C11.89 346.02 11.87 345.99 11.85 345.98 L9.26 344.5 C9.24 344.48 9.21 344.48 9.18 344.5 C9.16 344.51
						 9.14 344.54 9.14 344.56 L9.14 347.54 C9.14 347.57 9.16 347.59 9.18 347.61 L11.77 349.09 C11.78 349.1 11.8
						 349.1 11.81 349.1 ZM12.54 349.1 C12.56 349.1 12.57 349.1 12.58 349.09 L15.17 347.61 C15.19 347.59 15.21
						 347.57 15.21 347.54 L15.21 344.58 C15.21 344.55 15.19 344.53 15.17 344.52 C15.14 344.5 15.11 344.5 15.09
						 344.52 L12.5 346 C12.48 346.01 12.46 346.04 12.46 346.06 L12.46 349.02 C12.46 349.05 12.48 349.07 12.5 349.09
						 C12.52 349.1 12.53 349.1 12.54 349.1 ZM11.46 340.39 L9.87 339.48 C9.84 339.47 9.81 339.47 9.79 339.48 L8.2
						 340.39 L5.34 340.39 C4.89 340.39 4.54 340.79 4.54 341.23 L4.54 347.07 L3.43 347.07 L3.43 338.63 L15.93 338.61
						 L15.93 340.39 L11.46 340.39 ZM14.09 351.09 L18.39 351.09 C18.83 351.09 19.28 350.7 19.28 350.26 L19.28 341.23
						 C19.28 340.79 18.83 340.39 18.39 340.39 L17.05 340.39 L17.05 338.34 C17.05 337.9 16.61 337.5 16.16 337.5
						 L14.74 337.5 L14.74 335.46 C14.74 335.02 14.29 334.62 13.85 334.62 L0.8 334.62 C0.36 334.62 0 335.02 0 335.46
						 L0 344.49 C0 344.92 0.36 345.31 0.8 345.31 L2.31 345.31 L2.31 347.37 C2.31 347.81 2.67 348.2 3.11 348.2
						 L4.54 348.2 L4.54 350.26 C4.54 350.7 4.89 351.09 5.34 351.09 L10.09 351.09 C10.57 352.77 9.92 353.01 7.09
						 353.01 L7.09 353.9 L16.72 353.9 L16.72 353.01 C13.89 353.01 13.61 352.77 14.09 351.09 ZM18.27 349.96 L5.77
						 349.96 L5.77 341.52 L18.27 341.5 L18.27 349.96 ZM9.13 337.5 L7.55 336.6 C7.53 336.59 7.5 336.59 7.48 336.6
						 L5.9 337.5 L3.11 337.5 C2.67 337.5 2.31 337.9 2.31 338.34 L2.31 344.19 L1.12 344.19 L1.12 335.75 L13.62
						 335.73 L13.62 337.5 L9.13 337.5 Z" class="st6"/>
		</g>
		<g id="group13-24" transform="translate(394.441,-253.134)" v:mID="13" v:groupContext="group" v:layerMember="0">
			<title>Virtual Network</title>
			<g id="shape14-25" v:mID="14" v:groupContext="shape" v:layerMember="0" transform="translate(13.4197,0)">
				<title>Sheet.14</title>
				<path d="M5.86 347.04 L4.68 345.5 L0.63 340.17 L0 341.07 L4.54 347.04 L0 353 L0.63 353.9 L4.68 348.58 L5.86 347.04
							 Z" class="st6"/>
			</g>
			<g id="shape15-27" v:mID="15" v:groupContext="shape" v:layerMember="0">
				<title>Sheet.15</title>
				<path d="M0 347.04 L1.17 345.5 L5.22 340.17 L5.86 341.07 L1.32 347.04 L5.86 353 L5.22 353.9 L1.17 348.58 L0 347.04
							 Z" class="st6"/>
			</g>
			<g id="shape16-29" v:mID="16" v:groupContext="shape" v:layerMember="0" transform="translate(4.97749,-5.32311)">
				<title>Sheet.16</title>
				<path d="M2.34 352.36 C2.34 353.19 1.81 353.9 1.17 353.9 C0.49 353.9 -0 353.19 0 352.36 C0 351.53 0.54 350.82 1.17
							 350.82 C1.81 350.82 2.34 351.46 2.34 352.36 Z" class="st6"/>
			</g>
			<g id="shape17-31" v:mID="17" v:groupContext="shape" v:layerMember="0" transform="translate(8.49102,-5.32311)">
				<title>Sheet.17</title>
				<ellipse cx="1.17118" cy="352.359" rx="1.17118" ry="1.53921" class="st6"/>
			</g>
			<g id="shape18-33" v:mID="18" v:groupContext="shape" v:layerMember="0" transform="translate(12.0045,-5.32311)">
				<title>Sheet.18</title>
				<ellipse cx="1.17118" cy="352.359" rx="1.17118" ry="1.53921" class="st6"/>
			</g>
		</g>
		<g id="group20-35" transform="translate(437.527,-247.253)" v:mID="20" v:groupContext="group" v:layerMember="0">
			<title>SQL Database (Generic)</title>
			<g id="shape21-36" v:mID="21" v:groupContext="shape" v:layerMember="0" transform="translate(7.14547,-8.11385)">
				<title>Sheet.21</title>
				<path d="M1.36 352.16 C1.31 352.06 1.23 351.99 1.13 351.93 C1.04 351.88 0.93 351.85 0.8 351.85 C0.66 351.85 0.53
							 351.88 0.43 351.93 C0.33 351.99 0.25 352.06 0.18 352.15 C0.12 352.25 0.08 352.35 0.04 352.48 C0.01 352.61
							 0 352.74 0 352.88 C0 353.06 0.02 353.21 0.06 353.34 C0.11 353.47 0.16 353.58 0.23 353.66 C0.3 353.75
							 0.38 353.8 0.48 353.84 C0.57 353.88 0.67 353.9 0.78 353.9 C0.88 353.9 0.97 353.88 1.06 353.84 C1.16
							 353.8 1.24 353.74 1.31 353.66 C1.38 353.58 1.44 353.47 1.48 353.34 C1.52 353.22 1.55 353.07 1.55 352.9
							 C1.55 352.75 1.53 352.62 1.5 352.5 C1.47 352.36 1.43 352.25 1.36 352.16 Z" class="st6"/>
			</g>
			<g id="shape22-38" v:mID="22" v:groupContext="shape" v:layerMember="0">
				<title>Sheet.22</title>
				<path d="M7.84 334.29 C3.51 334.29 0 335.68 0 337.2 L0 350.95 C0 352.47 3.51 353.9 7.84 353.9 C12.17 353.9 15.69
							 352.53 15.69 351.01 L15.69 337.27 C15.69 335.75 12.17 334.29 7.84 334.29 ZM5.48 345.82 C5.47 345.92
							 5.43 346.01 5.37 346.1 C5.32 346.2 5.25 346.29 5.16 346.37 C5.07 346.45 4.96 346.53 4.82 346.59 C4.69
							 346.66 4.52 346.71 4.34 346.74 C4.15 346.78 3.94 346.8 3.69 346.8 C3.56 346.8 3.43 346.79 3.32 346.78
							 C3.2 346.77 3.09 346.75 2.98 346.73 C2.88 346.71 2.79 346.69 2.71 346.67 C2.62 346.64 2.55 346.61 2.49
							 346.59 L2.49 345.51 C2.55 345.56 2.64 345.61 2.73 345.66 C2.82 345.7 2.92 345.75 3.02 345.79 C3.12 345.82
							 3.23 345.85 3.34 345.88 C3.45 345.9 3.55 345.92 3.66 345.92 C3.75 345.92 3.82 345.9 3.88 345.89 C3.94
							 345.88 3.98 345.85 4.01 345.82 C4.04 345.8 4.07 345.77 4.08 345.74 C4.09 345.7 4.1 345.67 4.1 345.64
							 C4.1 345.58 4.08 345.53 4.05 345.48 C4.02 345.44 3.98 345.4 3.92 345.36 C3.86 345.33 3.79 345.29 3.71
							 345.26 C3.63 345.23 3.53 345.2 3.44 345.16 C3.26 345.1 3.1 345.02 2.97 344.93 C2.84 344.84 2.74 344.76
							 2.65 344.66 C2.57 344.55 2.52 344.44 2.48 344.33 C2.44 344.22 2.42 344.1 2.42 343.98 C2.42 343.78 2.47
							 343.61 2.55 343.45 C2.63 343.3 2.75 343.17 2.89 343.06 C3.04 342.95 3.23 342.86 3.43 342.81 C3.64 342.75
							 3.87 342.72 4.13 342.72 C4.28 342.72 4.4 342.73 4.52 342.73 C4.64 342.75 4.75 342.76 4.84 342.77 C4.94
							 342.79 5.02 342.8 5.09 342.82 C5.17 342.84 5.24 342.86 5.29 342.88 L5.29 343.88 C5.23 343.85 5.17 343.81
							 5.09 343.78 C5.01 343.75 4.93 343.72 4.84 343.69 C4.75 343.67 4.66 343.65 4.56 343.63 C4.46 343.61 4.36
							 343.61 4.25 343.61 C4.11 343.61 4 343.63 3.91 343.68 C3.82 343.73 3.78 343.8 3.78 343.88 C3.78 343.93
							 3.79 343.97 3.81 344 C3.83 344.04 3.86 344.07 3.9 344.1 C3.94 344.13 4 344.16 4.07 344.19 C4.14 344.23
							 4.22 344.26 4.32 344.3 C4.5 344.36 4.65 344.43 4.8 344.51 C4.95 344.58 5.07 344.67 5.18 344.77 C5.29
							 344.87 5.37 344.98 5.43 345.1 C5.49 345.23 5.52 345.37 5.52 345.54 C5.52 345.63 5.51 345.72 5.48 345.82
							 ZM8.67 347.73 L7.75 346.8 C7.48 346.78 7.23 346.72 6.99 346.63 C6.75 346.53 6.55 346.4 6.37 346.23 C6.19
							 346.06 6.06 345.86 5.95 345.62 C5.85 345.38 5.8 345.11 5.8 344.81 C5.8 344.5 5.85 344.22 5.96 343.97
							 C6.06 343.71 6.21 343.49 6.4 343.31 C6.59 343.12 6.82 342.97 7.08 342.87 C7.35 342.77 7.64 342.72 7.96
							 342.72 C8.26 342.72 8.53 342.77 8.79 342.86 C9.04 342.96 9.26 343.09 9.45 343.27 C9.63 343.44 9.77 343.65
							 9.88 343.91 C9.98 344.15 10.03 344.44 10.03 344.75 C10.03 344.97 10.01 345.19 9.94 345.38 C9.89 345.58
							 9.8 345.75 9.7 345.91 C9.6 346.06 9.47 346.2 9.33 346.32 C9.19 346.44 9.04 346.53 8.87 346.6 L10.28
							 347.73 L8.67 347.73 L8.67 347.73 ZM13.35 346.73 L10.63 346.73 L10.63 342.79 L11.9 342.79 L11.9 345.8
							 L13.35 345.8 L13.35 346.73 L13.35 346.73 ZM7.83 338.55 C4.75 338.55 2.25 337.84 2.25 336.95 C2.25 336.06
							 4.75 335.35 7.83 335.35 C10.92 335.35 13.42 336.06 13.42 336.95 C13.42 337.84 10.92 338.55 7.83 338.55
							 Z" class="st6"/>
			</g>
		</g>
		<g id="shape28-40" v:mID="28" v:groupContext="shape" v:layerMember="0" transform="translate(377.433,467.418) scale(1,-1)">
			<title>Storage (Azure)</title>
			<path d="M16.43 347.07 L15.17 347.07 L15.17 353.29 C15.17 353.61 14.9 353.9 14.59 353.9 L0.58 353.9 C0.27 353.9 0 353.61
						 0 353.29 L0 340.81 C0 340.48 0.27 340.2 0.58 340.2 L8.52 340.2 L10.6 336.38 L16.4 336.38 L19.28 341.7 L16.43
						 347.07 ZM11.25 350.32 L14.05 350.32 L14.05 348.53 L11.25 348.53 L11.25 350.32 ZM14.05 347.96 L14.05 347.07
						 L11.25 347.07 L11.25 347.96 L14.05 347.96 ZM7.87 350.32 L10.67 350.32 L10.67 348.53 L7.87 348.53 L7.87 350.32
						 ZM7.87 347.96 L10.67 347.96 L10.67 347.07 L10.64 347.07 L10.14 346.17 L7.87 346.17 L7.87 347.96 ZM7.87 345.56
						 L9.79 345.56 L8.83 343.77 L7.87 343.77 L7.87 345.56 ZM8.52 343.21 L7.87 342.03 L7.87 343.21 L8.52 343.21
						 ZM3.95 341.42 L1.15 341.42 L1.15 343.21 L3.95 343.21 L3.95 341.42 ZM3.95 343.77 L1.15 343.77 L1.15 345.56
						 L3.95 345.56 L3.95 343.77 ZM3.95 346.17 L1.15 346.17 L1.15 347.96 L3.95 347.96 L3.95 346.17 ZM3.95 348.53
						 L1.15 348.53 L1.15 350.32 L3.95 350.32 L3.95 348.53 ZM7.33 341.42 L4.53 341.42 L4.53 343.21 L7.33 343.21
						 L7.33 341.42 ZM7.33 343.77 L4.53 343.77 L4.53 345.56 L7.33 345.56 L7.33 343.77 ZM7.33 346.17 L4.53 346.17
						 L4.53 347.96 L7.33 347.96 L7.33 346.17 ZM7.33 348.53 L4.53 348.53 L4.53 350.32 L7.33 350.32 L7.33 348.53
						 ZM7.87 341.42 L7.87 341.46 L7.87 341.42 Z" class="st6"/>
		</g>
		<g id="group29-42" transform="translate(415.984,-222.855)" v:mID="29" v:groupContext="group" v:layerMember="0">
			<title>Web App (Was Websites)</title>
			<g id="group30-43" v:mID="30" v:groupContext="group" v:layerMember="0">
				<title>Sheet.30</title>
				<g id="shape31-44" v:mID="31" v:groupContext="shape" v:layerMember="0">
					<title>Sheet.31</title>
					<path d="M14.15 351.19 C12.8 352.24 11.22 352.76 9.65 352.76 C7.41 352.76 5.2 351.73 3.74 349.77 C1.25 346.43
								 1.86 341.65 5.13 339.08 C6.47 338.02 8.06 337.52 9.63 337.52 C11.87 337.52 14.07 338.55 15.53 340.51
								 C18.03 343.85 17.41 348.63 14.15 351.19 ZM16.41 339.81 C14.73 337.55 12.19 336.38 9.63 336.38 C7.83
								 336.38 5.99 336.96 4.45 338.18 C0.71 341.13 0 346.62 2.87 350.47 C4.54 352.72 7.08 353.9 9.65 353.9
								 C11.45 353.9 13.28 353.31 14.83 352.09 C18.57 349.15 19.28 343.65 16.41 339.81 Z" class="st6"/>
				</g>
			</g>
			<g id="group32-46" transform="translate(3.06342,-2.71713)" v:mID="32" v:groupContext="group" v:layerMember="0">
				<title>Sheet.32</title>
				<g id="group33-47" transform="translate(0.211298,-0.109098)" v:mID="33" v:groupContext="group" v:layerMember="0">
					<title>Sheet.33</title>
					<g id="group34-48" transform="translate(0.270299,1.7053E-13)" v:mID="34" v:groupContext="group"
							v:layerMember="0">
						<title>Sheet.34</title>
						<g id="shape35-49" v:mID="35" v:groupContext="shape" v:layerMember="0">
							<title>Sheet.35</title>
							<path d="M2.24 349.55 C1.74 349.05 1.34 348.57 1.03 348.1 C0.31 349.6 0.06 351.13 0 352.36 C0.07 352.46
										 0.07 352.53 0.14 352.63 C0.5 353.1 0.95 353.54 1.38 353.9 C1.31 352.89 1.41 351.26 2.24
										 349.55 Z" class="st6"/>
						</g>
					</g>
					<g id="shape36-51" v:mID="36" v:groupContext="shape" v:layerMember="0" transform="translate(2.03514,-5.54939)">
						<title>Sheet.36</title>
						<path d="M3.05 349.26 C2.38 349.74 1.69 350.35 1 351.11 C0.61 351.52 0.29 351.94 0 352.37 C0.3 352.86 0.68
									 353.37 1.17 353.9 C1.54 353.37 1.99 352.83 2.53 352.31 C3.22 351.65 3.86 351.13 4.47 350.7 C3.97
									 350.23 3.5 349.76 3.05 349.26 Z" class="st6"/>
					</g>
					<g id="group37-53" transform="translate(6.14174,-9.39375)" v:mID="37" v:groupContext="group" v:layerMember="0">
						<title>Sheet.37</title>
						<g id="shape38-54" v:mID="38" v:groupContext="shape" v:layerMember="0">
							<title>Sheet.38</title>
							<path d="M6.04 352.62 C5.72 352.19 5.35 351.82 4.97 351.49 C3.82 351.31 2.04 351.33 0 352.44 C0.47 352.96
										 0.93 353.44 1.38 353.9 C4.1 352.39 6.04 352.62 6.04 352.62 Z" class="st6"/>
						</g>
					</g>
					<g id="group39-56" transform="translate(6.84452E-14,-5.79862)" v:mID="39" v:groupContext="group"
							v:layerMember="0">
						<title>Sheet.39</title>
						<g id="shape40-57" v:mID="40" v:groupContext="shape" v:layerMember="0">
							<title>Sheet.40</title>
							<path d="M1.3 353.9 C1.51 353.47 1.75 353.05 2.03 352.62 C0.87 350.72 0.92 349.16 1.05 348.42 C0.76 348.74
										 0.48 349.06 0.25 349.42 C0.01 350.41 -0 351.99 1.3 353.9 Z" class="st6"/>
						</g>
					</g>
					<g id="group41-59" transform="translate(2.50455,-0.457585)" v:mID="41" v:groupContext="group" v:layerMember="0">
						<title>Sheet.41</title>
						<g id="shape42-60" v:mID="42" v:groupContext="shape" v:layerMember="0">
							<title>Sheet.42</title>
							<path d="M2.11 350.12 C1.57 349.68 1.1 349.23 0.71 348.8 C0.42 349.21 0.19 349.61 0 350.01 C0.37 350.4
										 0.8 350.79 1.29 351.19 C4.33 353.67 7.36 353.9 9.06 353.9 C9.17 353.9 9.7 353.16 10.01 352.7
										 C9.25 352.86 6 353.28 2.11 350.12 Z" class="st6"/>
						</g>
					</g>
					<g id="group43-62" transform="translate(1.30028,-4.34607)" v:mID="43" v:groupContext="group" v:layerMember="0">
						<title>Sheet.43</title>
						<g id="shape44-63" v:mID="44" v:groupContext="shape" v:layerMember="0">
							<title>Sheet.44</title>
							<path d="M0 352.45 C0.32 352.92 0.71 353.4 1.2 353.9 C1.4 353.5 1.63 353.1 1.91 352.69 C1.42 352.17 1.03
										 351.66 0.74 351.17 C0.45 351.59 0.21 352.02 0 352.45 Z" class="st6"/>
						</g>
					</g>
					<g id="group45-65" transform="translate(6.50296,-3.29077)" v:mID="45" v:groupContext="group" v:layerMember="0">
						<title>Sheet.45</title>
						<g id="shape46-66" v:mID="46" v:groupContext="shape" v:layerMember="0">
							<title>Sheet.46</title>
							<path d="M0 348.44 C2.78 351.07 6.06 353.31 6.9 353.9 C6.98 353.68 7.04 353.47 7.1 353.25 C6.2 352.56
										 3.84 350.68 1.02 347.8 C0.7 347.98 0.35 348.19 0 348.44 Z" class="st6"/>
						</g>
					</g>
					<g id="group47-68" transform="translate(3.08305,-10.1823)" v:mID="47" v:groupContext="group" v:layerMember="0">
						<title>Sheet.47</title>
						<g id="shape48-69" v:mID="48" v:groupContext="shape" v:layerMember="0">
							<title>Sheet.48</title>
							<path d="M3.06 353.23 C2.38 352.5 1.69 351.72 0.98 350.88 C0.64 350.99 0.32 351.13 0 351.29 C0.52 352.16
										 1.22 353.04 2 353.9 C2.36 353.64 2.71 353.42 3.06 353.23 Z" class="st6"/>
						</g>
					</g>
					<g id="shape49-71" v:mID="49" v:groupContext="shape" v:layerMember="0" transform="translate(5.03053,-8.68566)">
						<title>Sheet.49</title>
						<path d="M1.15 351.71 C0.81 351.9 0.35 352.18 0 352.44 C0.44 352.93 0.89 353.43 1.39 353.9 C1.75 353.65 2.22
									 353.35 2.54 353.16 C2.09 352.71 1.62 352.23 1.15 351.71 Z" class="st6"/>
					</g>
					<g id="shape50-73" v:mID="50" v:groupContext="shape" v:layerMember="0" transform="translate(5.03008,-8.65694)">
						<title>Sheet.50</title>
						<path d="M1.03 351.61 C0.68 351.8 0.35 352.05 0 352.31 C0.44 352.8 1.07 353.43 1.57 353.9 C1.93 353.65 2.22
									 353.4 2.54 353.21 C2.09 352.76 1.5 352.13 1.03 351.61 Z" class="st6"/>
					</g>
				</g>
				<g id="group51-75" transform="translate(9.18722,-3.85536)" v:mID="51" v:groupContext="group" v:layerMember="0">
					<title>Sheet.51</title>
					<g id="shape52-76" v:mID="52" v:groupContext="shape" v:layerMember="0">
						<title>Sheet.52</title>
						<path d="M0.83 350.75 C0.14 351.3 0 352.33 0.53 353.05 C1.07 353.77 2.07 353.9 2.78 353.36 C3.47 352.81 3.61
									 351.78 3.07 351.06 C2.53 350.35 1.54 350.2 0.83 350.75 Z" class="st6"/>
					</g>
				</g>
				<g id="group53-78" transform="translate(5.96607,-1.13687E-13)" v:mID="53" v:groupContext="group" v:layerMember="0">
					<title>Sheet.53</title>
					<g id="shape54-79" v:mID="54" v:groupContext="shape" v:layerMember="0">
						<title>Sheet.54</title>
						<path d="M0.77 350.99 C0.12 351.49 -0 352.45 0.49 353.11 C0.99 353.77 1.91 353.9 2.56 353.39 C3.21 352.88
									 3.33 351.93 2.84 351.27 C2.34 350.6 1.42 350.48 0.77 350.99 Z" class="st6"/>
					</g>
				</g>
				<g id="group55-81" transform="translate(0,-3.31613)" v:mID="55" v:groupContext="group" v:layerMember="0">
					<title>Sheet.55</title>
					<g id="shape56-82" v:mID="56" v:groupContext="shape" v:layerMember="0">
						<title>Sheet.56</title>
						<path d="M1.17 349.47 C0.19 350.25 -0 351.69 0.75 352.69 C1.51 353.71 2.92 353.9 3.9 353.12 C4.88 352.35
									 5.07 350.91 4.32 349.89 C3.56 348.89 2.15 348.7 1.17 349.47 Z" class="st6"/>
					</g>
				</g>
			</g>
		</g>
		<g id="shape57-84" v:mID="57" v:groupContext="shape" v:layerMember="1" transform="translate(241.824,-251.932)">
			<title>Dynamic connector</title>
			<desc>TCP 443</desc>
			<v:textBlock v:margins="rect(4,4,4,4)" v:tabSpace="42.5197"/>
			<v:textRect cx="0.408264" cy="332.362" width="30" height="15.2035"/>
			<path d="M0 353.9 L0 318.87 L34.17 318.87" class="st8"/>
			<rect v:rectContext="textBkgnd" x="-9.44272" y="328.762" width="19.7021" height="7.20016" class="st10"/>
			<text x="-9.44" y="334.16" class="st2" v:langID="2058"><v:paragraph v:horizAlign="1"/><v:tabList/>TCP 443</text>		</g>
		<g id="shape58-92" v:mID="58" v:groupContext="shape" v:layerMember="1" transform="translate(396.992,-288.567)">
			<title>Dynamic connector.58</title>
			<path d="M7.09 353.9 L7.09 375.52" class="st11"/>
		</g>
		<g id="shape59-95" v:mID="59" v:groupContext="shape" v:layerMember="1" transform="translate(418.535,-240.65)">
			<title>Dynamic connector.59</title>
			<path d="M7.09 353.9 L7.09 305.98" class="st11"/>
		</g>
		<g id="shape61-98" v:mID="61" v:groupContext="shape" v:layerMember="1" transform="translate(438.283,-267.372)">
			<title>Dynamic connector.61</title>
			<path d="M7.09 353.9 L7.09 332.7" class="st11"/>
		</g>
		<g id="shape62-101" v:mID="62" v:groupContext="shape" v:layerMember="1" transform="translate(379.984,-288.567)">
			<title>Dynamic connector.62</title>
			<path d="M7.09 353.9 L7.09 401.52" class="st11"/>
		</g>
		<g id="shape64-104" v:mID="64" v:groupContext="shape" v:layerMember="1" transform="translate(317.527,-210.64)">
			<title>Dynamic connector.64</title>
			<desc>TCP 443</desc>
			<v:textBlock v:margins="rect(4,4,4,4)" v:tabSpace="42.5197"/>
			<v:textRect cx="-35.0917" cy="357.737" width="30" height="15.2035"/>
			<path d="M0 353.9 L-75.7 353.9 L-75.7 334.72" class="st12"/>
			<rect v:rectContext="textBkgnd" x="-44.9426" y="354.137" width="19.7021" height="7.20016" class="st10"/>
			<text x="-44.94" y="359.54" class="st2" v:langID="2058"><v:paragraph v:horizAlign="1"/><v:tabList/>TCP 443</text>		</g>
		<g id="group66-112" transform="translate(18.4722,-210.357)" v:mID="66" v:groupContext="group" v:layerMember="0">
			<title>Expandable Cloud</title>
			<desc>Other Cloud Providers</desc>
			<g id="shape67-113" v:mID="67" v:groupContext="shape" v:layerMember="0">
				<title>Sheet.67</title>
				<path d="M97.68 353.9 L20.18 353.9 C9.02 353.9 0 344.59 0 333.04 C0 321.63 8.87 312.18 19.87 312.03 L20.03 312.03
							 C23.54 307.53 28.89 304.98 34.4 304.98 C34.55 304.98 34.85 304.98 35.01 304.98 C36.84 293.57 46.47 285.02
							 57.63 285.02 C65.27 285.02 72.15 288.92 76.59 295.52 C78.88 294.62 81.33 294.17 83.92 294.17 C96.15
							 294.17 106.09 304.53 106.09 317.28 C106.09 317.58 106.09 318.03 106.09 318.33 C111.44 321.78 114.8 328.09
							 114.8 334.69 C114.8 343.54 108.99 351.2 100.74 353.3 L100.59 353.3 L97.68 353.9 Z" class="st13"/>
			</g>
			<g id="shape66-115" v:mID="66" v:groupContext="groupContent" v:layerMember="0">
				<v:textBlock v:margins="rect(4,4,4,4)" v:tabSpace="42.5197"/>
				<v:textRect cx="57.4016" cy="361.5" width="63.35" height="15.2035"/>
				<text x="30.41" y="363.3" class="st2" v:langID="2058"><v:paragraph v:horizAlign="1"/><v:tabList/>Other Cloud Providers</text>			</g>
		</g>
		<g id="group68-117" transform="translate(82.1218,-230.554)" v:mID="68" v:groupContext="group">
			<v:custProps>
				<v:cp v:nameU="AssetNumber" v:lbl="Asset Number" v:prompt="" v:type="0" v:format="" v:sortKey="Asset"
						v:invis="false" v:ask="false" v:langID="1033" v:cal="0"/>
				<v:cp v:nameU="SerialNumber" v:lbl="Serial Number" v:prompt="" v:type="0" v:format="" v:sortKey="Asset"
						v:invis="false" v:ask="false" v:langID="1033" v:cal="0"/>
				<v:cp v:nameU="Location" v:lbl="Location" v:prompt="" v:type="0" v:format="" v:sortKey="Asset" v:invis="false"
						v:ask="false" v:langID="1033" v:cal="0"/>
				<v:cp v:nameU="Building" v:lbl="Building" v:prompt="" v:type="0" v:format="" v:sortKey="Asset" v:invis="false"
						v:ask="false" v:langID="1033" v:cal="0"/>
				<v:cp v:nameU="Room" v:lbl="Room" v:prompt="" v:type="0" v:format="" v:sortKey="Asset" v:invis="false"
						v:ask="false" v:langID="1033" v:cal="0"/>
				<v:cp v:nameU="Manufacturer" v:lbl="Manufacturer" v:prompt="" v:type="0" v:format="" v:sortKey="Equipment"
						v:invis="false" v:ask="false" v:langID="1033" v:cal="0"/>
				<v:cp v:nameU="ProductNumber" v:lbl="Product Number" v:prompt="" v:type="0" v:format="" v:sortKey="Equipment"
						v:invis="false" v:ask="false" v:langID="1033" v:cal="0"/>
				<v:cp v:nameU="PartNumber" v:lbl="Part Number" v:prompt="" v:type="0" v:format="" v:sortKey="Equipment"
						v:invis="false" v:ask="false" v:langID="1033" v:cal="0"/>
				<v:cp v:nameU="ProductDescription" v:lbl="Product Description" v:prompt="" v:type="0" v:format=""
						v:sortKey="Equipment" v:invis="false" v:ask="false" v:langID="1033" v:cal="0"/>
				<v:cp v:nameU="NetworkName" v:lbl="Network Name" v:prompt="" v:type="0" v:format="" v:sortKey="Network"
						v:invis="false" v:ask="false" v:langID="1033" v:cal="0"/>
				<v:cp v:nameU="IPAddress" v:lbl="IP Address" v:prompt="" v:type="0" v:format="" v:sortKey="Network" v:invis="false"
						v:ask="false" v:langID="1033" v:cal="0"/>
				<v:cp v:nameU="SubnetMask" v:lbl="Subnet Mask" v:prompt="" v:type="0" v:format="" v:sortKey="Network"
						v:invis="false" v:ask="false" v:langID="1033" v:cal="0"/>
				<v:cp v:nameU="AdminInterface" v:lbl="Administrative Interface" v:prompt="" v:type="0" v:format=""
						v:sortKey="Network" v:invis="false" v:ask="false" v:langID="1033" v:cal="0"/>
				<v:cp v:nameU="NumberofPorts" v:lbl="Number of Ports" v:prompt="" v:type="0" v:format="" v:sortKey="Network"
						v:invis="false" v:ask="false" v:langID="1033" v:cal="0"/>
				<v:cp v:nameU="CommunityString" v:lbl="Community String" v:prompt="" v:type="0" v:format="" v:sortKey="Network"
						v:invis="false" v:ask="false" v:langID="1033" v:cal="0"/>
				<v:cp v:nameU="NetworkDescription" v:lbl="Network Description" v:prompt="" v:type="0" v:format=""
						v:sortKey="Network" v:invis="false" v:ask="false" v:langID="1033" v:cal="0"/>
				<v:cp v:nameU="MACAddress" v:lbl="MAC Address" v:prompt="" v:type="0" v:format="" v:sortKey="Network"
						v:invis="false" v:ask="false" v:langID="1033" v:cal="0"/>
				<v:cp v:nameU="CPU" v:lbl="CPU" v:prompt="" v:type="0" v:format="" v:sortKey="Workstation" v:invis="false"
						v:ask="false" v:langID="1033" v:cal="0"/>
				<v:cp v:nameU="Memory" v:lbl="Memory" v:prompt="" v:type="0" v:format="" v:sortKey="Workstation" v:invis="false"
						v:ask="false" v:langID="1033" v:cal="0"/>
				<v:cp v:nameU="OperatingSystem" v:lbl="Operating System" v:prompt="" v:type="0" v:format="" v:sortKey="Workstation"
						v:invis="false" v:ask="false" v:langID="1033" v:cal="0"/>
				<v:cp v:nameU="HardDriveSize" v:lbl="Hard Drive Capacity" v:prompt="" v:type="0" v:format=""
						v:sortKey="Workstation" v:invis="false" v:ask="false" v:langID="1033" v:cal="0"/>
				<v:cp v:nameU="Department" v:lbl="Department" v:prompt="" v:type="0" v:format="" v:sortKey="" v:invis="false"
						v:ask="false" v:langID="1033" v:cal="0"/>
				<v:cp v:nameU="ShapeClass" v:lbl="ShapeClass" v:prompt="" v:type="0" v:format="" v:sortKey="" v:invis="true"
						v:ask="false" v:langID="1033" v:cal="0" v:val="VT4(Equipment)"/>
				<v:cp v:nameU="BelongsTo" v:lbl="Belongs To" v:prompt="" v:type="0" v:format="" v:sortKey="" v:invis="true"
						v:ask="false" v:langID="1033" v:cal="0"/>
			</v:custProps>
			<v:userDefs>
				<v:ud v:nameU="visVersion" v:prompt="" v:val="VT0(15):26"/>
				<v:ud v:nameU="ShapeClass" v:prompt="" v:val="VT0(5):26"/>
				<v:ud v:nameU="SolSH" v:prompt="" v:val="VT15({BF0433D9-CD73-4EB5-8390-8653BE590246}):41"/>
				<v:ud v:nameU="visLegendShape" v:prompt="" v:val="VT0(2):26"/>
			</v:userDefs>
			<title>Virtual server</title>
			<g id="shape69-118" v:mID="69" v:groupContext="shape" transform="translate(3.94097,-0.71391)">
				<title>Sheet.69</title>
				<rect x="0" y="336.051" width="11.3937" height="17.8478" class="st14"/>
			</g>
			<g id="shape70-120" v:mID="70" v:groupContext="shape" transform="translate(12.4565,-8.33277)">
				<title>Sheet.70</title>
				<ellipse cx="0.688745" cy="353.21" rx="0.688745" ry="0.688745" class="st14"/>
			</g>
			<g id="shape71-122" v:mID="71" v:groupContext="shape" transform="translate(8.2769,-3.63952)">
				<title>Sheet.71</title>
				<v:userDefs>
					<v:ud v:nameU="SurroundingRegionColor" v:prompt="" v:val="VT0(1):26"/>
				</v:userDefs>
				<path d="M-0 353.9 L5.56 353.9 L5.56 353.45 L-0 353.45 L-0 353.9 ZM-0 352.55 L5.56 352.55 L5.56 352.1 L-0 352.1 L-0
							 352.55 ZM-0 351.19 L5.56 351.19 L5.56 350.75 L-0 350.75 L-0 351.19 Z" class="st15"/>
			</g>
			<g id="shape72-125" v:mID="72" v:groupContext="shape" transform="translate(3.22705,3.59036E-07)">
				<title>Sheet.72</title>
				<path d="M0 353.9 L12.82 353.9 L12.82 334.62 L0 334.62 L0 353.9" class="st16"/>
			</g>
		</g>
		<g id="shape83-128" v:mID="83" v:groupContext="shape" v:layerMember="1" transform="translate(211.228,-237.711)">
			<title>Dynamic connector.83</title>
			<desc>TCP 443</desc>
			<v:textBlock v:margins="rect(4,4,4,4)" v:tabSpace="42.5197"/>
			<v:textRect cx="-41.0981" cy="351.598" width="30" height="15.2035"/>
			<path d="M0 346.81 L-83.33 346.81" class="st17"/>
			<rect v:rectContext="textBkgnd" x="-50.9491" y="347.999" width="19.7021" height="7.20016" class="st10"/>
			<text x="-50.95" y="353.4" class="st2" v:langID="2058"><v:paragraph v:horizAlign="1"/><v:tabList/>TCP 443</text>		</g>
		<g id="shape85-136" v:mID="85" v:groupContext="shape" transform="translate(211.228,-229.822)">
			<title>Sheet.85</title>
			<desc>Log Analytics Workspace</desc>
			<v:textBlock v:margins="rect(4,4,4,4)" v:tabSpace="42.5197"/>
			<v:textRect cx="30.5957" cy="342.843" width="61.2" height="22.1102"/>
			<path d="M0 353.9 L61.19 353.9 L61.19 331.79 L0 331.79 L0 353.9 Z" class="st1"/>
			<text x="14.73" y="341.04" class="st2" v:langID="2058"><v:paragraph v:horizAlign="1"/><v:tabList/>Log Analytics <tspan
						x="16.99" dy="1.2em" class="st7">Workspace</tspan></text>		</g>
		<g id="shape86-140" v:mID="86" v:groupContext="shape" v:layerMember="0" transform="translate(259.323,-223.585)">
			<title>OMS Log Analytics (nc)</title>
			<path d="M12.88 346.53 L11.78 346.53 L11.78 341.64 L12.88 341.64 L12.88 346.53 ZM10.52 346.53 L9.42 346.53 L9.42 344.01
						 L10.52 344.01 L10.52 346.53 ZM8.16 346.53 L7.06 346.53 L7.06 342.9 L8.16 342.9 L8.16 346.53 ZM10.21 338.21
						 C7.12 338.21 4.69 340.61 4.69 343.69 L4.69 349.2 L10.21 349.2 C13.29 349.2 15.69 346.78 15.69 343.69 C15.69
						 340.61 13.29 338.21 10.21 338.21 ZM7.84 351.73 L6.58 351.73 L6.58 350.47 L7.84 350.47 L7.84 351.73 ZM4.06
						 352.99 L2.8 352.99 L2.8 351.73 L4.06 351.73 L4.06 352.99 ZM1.55 347.95 L2.8 347.95 L2.8 349.21 L1.55 349.21
						 L1.55 347.95 ZM4.06 349.84 L4.06 344.53 C1.75 344.83 0 346.81 0 349.21 C0 351.82 2.08 353.9 4.69 353.9 C7.09
						 353.9 9.06 352.15 9.37 349.84 L4.06 349.84 Z" class="st6"/>
		</g>
		<g id="shape88-142" v:mID="88" v:groupContext="shape" v:layerMember="1" transform="translate(374.22,-315.142)">
			<title>Dynamic connector.88</title>
			<path d="M0 353.9 L-139.96 353.9 L-139.96 417.11" class="st17"/>
		</g>
		<g id="shape89-147" v:mID="89" v:groupContext="shape" transform="translate(168.708,-45.0972)">
			<title>Sheet.89</title>
			<path d="M0 353.9 L117.64 353.9 L117.64 285.02 L0 285.02 L0 353.9 Z" class="st19"/>
		</g>
		<g id="group107-149" transform="translate(270.661,-33.2035)" v:mID="107" v:groupContext="group" v:layerMember="0">
			<title>Enterprise / Building</title>
			<desc>Local</desc>
			<g id="shape108-150" v:mID="108" v:groupContext="shape" v:layerMember="0">
				<title>Sheet.108</title>
				<path d="M0 353.9 L8.05 353.9 L8.05 328.41 L0 328.41 L0 353.9 ZM6.64 339.17 L4.49 339.17 L4.49 336.97 L6.64 336.97
							 L6.64 339.17 ZM1.24 335.88 L1.24 333.69 L3.39 333.69 L3.39 335.88 L1.24 335.88 ZM4.52 335.88 L4.52 333.69
							 L6.67 333.69 L6.67 335.88 L4.52 335.88 ZM4.49 330.41 L6.64 330.41 L6.64 332.6 L4.49 332.6 L4.49 330.41
							 ZM1.27 330.41 L3.42 330.41 L3.42 332.6 L1.27 332.6 L1.27 330.41 ZM1.27 336.97 L3.42 336.97 L3.42 339.17
							 L1.27 339.17 L1.27 336.97 ZM6.64 349.08 L4.49 349.08 L4.49 346.89 L6.64 346.89 L6.64 349.08 ZM1.24 345.8
							 L1.24 343.61 L3.39 343.61 L3.39 345.8 L1.24 345.8 ZM4.52 345.8 L4.52 343.61 L6.67 343.61 L6.67 345.8
							 L4.52 345.8 ZM4.49 340.32 L6.64 340.32 L6.64 342.52 L4.49 342.52 L4.49 340.32 ZM1.27 340.32 L3.42 340.32
							 L3.42 342.52 L1.27 342.52 L1.27 340.32 ZM1.27 346.89 L3.42 346.89 L3.42 349.08 L1.27 349.08 L1.27 346.89
							 ZM14.73 336.72 L14.73 334.1 L13.56 334.1 L13.56 331.55 L12.72 331.55 L12.72 329.17 L12.02 329.17 L12.02
							 331.55 L11.18 331.55 L11.18 334.1 L10.01 334.1 L10.01 336.72 L9.05 336.72 L9.05 353.9 L15.69 353.9 L15.69
							 336.72 L14.73 336.72 ZM12.3 347.06 L10.15 347.06 L10.15 344.86 L12.3 344.86 L12.3 347.06 ZM12.3 340.33
							 L10.15 340.33 L10.15 338.14 L12.3 338.14 L12.3 340.33 ZM14.83 343.67 L12.68 343.67 L12.68 341.47 L14.83
							 341.47 L14.83 343.67 Z" class="st20"/>
			</g>
			<g id="shape107-152" v:mID="107" v:groupContext="groupContent" v:layerMember="0">
				<v:textBlock v:margins="rect(4,4,4,4)" v:tabSpace="42.5197"/>
				<v:textRect cx="7.84252" cy="361.5" width="21.84" height="15.2035"/>
				<text x="1.61" y="363.3" class="st2" v:langID="2058"><v:paragraph v:horizAlign="1"/><v:tabList/>Local</text>			</g>
		</g>
		<g id="group109-154" transform="translate(188.74,-81.8531)" v:mID="109" v:groupContext="group">
			<v:custProps>
				<v:cp v:nameU="AssetNumber" v:lbl="Asset Number" v:prompt="" v:type="0" v:format="" v:sortKey="Asset"
						v:invis="false" v:ask="false" v:langID="1033" v:cal="0"/>
				<v:cp v:nameU="SerialNumber" v:lbl="Serial Number" v:prompt="" v:type="0" v:format="" v:sortKey="Asset"
						v:invis="false" v:ask="false" v:langID="1033" v:cal="0"/>
				<v:cp v:nameU="Location" v:lbl="Location" v:prompt="" v:type="0" v:format="" v:sortKey="Asset" v:invis="false"
						v:ask="false" v:langID="1033" v:cal="0"/>
				<v:cp v:nameU="Building" v:lbl="Building" v:prompt="" v:type="0" v:format="" v:sortKey="Asset" v:invis="false"
						v:ask="false" v:langID="1033" v:cal="0"/>
				<v:cp v:nameU="Room" v:lbl="Room" v:prompt="" v:type="0" v:format="" v:sortKey="Asset" v:invis="false"
						v:ask="false" v:langID="1033" v:cal="0"/>
				<v:cp v:nameU="Manufacturer" v:lbl="Manufacturer" v:prompt="" v:type="0" v:format="" v:sortKey="Equipment"
						v:invis="false" v:ask="false" v:langID="1033" v:cal="0"/>
				<v:cp v:nameU="ProductNumber" v:lbl="Product Number" v:prompt="" v:type="0" v:format="" v:sortKey="Equipment"
						v:invis="false" v:ask="false" v:langID="1033" v:cal="0"/>
				<v:cp v:nameU="PartNumber" v:lbl="Part Number" v:prompt="" v:type="0" v:format="" v:sortKey="Equipment"
						v:invis="false" v:ask="false" v:langID="1033" v:cal="0"/>
				<v:cp v:nameU="ProductDescription" v:lbl="Product Description" v:prompt="" v:type="0" v:format=""
						v:sortKey="Equipment" v:invis="false" v:ask="false" v:langID="1033" v:cal="0"/>
				<v:cp v:nameU="NetworkName" v:lbl="Network Name" v:prompt="" v:type="0" v:format="" v:sortKey="Network"
						v:invis="false" v:ask="false" v:langID="1033" v:cal="0"/>
				<v:cp v:nameU="IPAddress" v:lbl="IP Address" v:prompt="" v:type="0" v:format="" v:sortKey="Network" v:invis="false"
						v:ask="false" v:langID="1033" v:cal="0"/>
				<v:cp v:nameU="SubnetMask" v:lbl="Subnet Mask" v:prompt="" v:type="0" v:format="" v:sortKey="Network"
						v:invis="false" v:ask="false" v:langID="1033" v:cal="0"/>
				<v:cp v:nameU="AdminInterface" v:lbl="Administrative Interface" v:prompt="" v:type="0" v:format=""
						v:sortKey="Network" v:invis="false" v:ask="false" v:langID="1033" v:cal="0"/>
				<v:cp v:nameU="NumberofPorts" v:lbl="Number of Ports" v:prompt="" v:type="0" v:format="" v:sortKey="Network"
						v:invis="false" v:ask="false" v:langID="1033" v:cal="0"/>
				<v:cp v:nameU="CommunityString" v:lbl="Community String" v:prompt="" v:type="0" v:format="" v:sortKey="Network"
						v:invis="false" v:ask="false" v:langID="1033" v:cal="0"/>
				<v:cp v:nameU="NetworkDescription" v:lbl="Network Description" v:prompt="" v:type="0" v:format=""
						v:sortKey="Network" v:invis="false" v:ask="false" v:langID="1033" v:cal="0"/>
				<v:cp v:nameU="MACAddress" v:lbl="MAC Address" v:prompt="" v:type="0" v:format="" v:sortKey="Network"
						v:invis="false" v:ask="false" v:langID="1033" v:cal="0"/>
				<v:cp v:nameU="CPU" v:lbl="CPU" v:prompt="" v:type="0" v:format="" v:sortKey="Workstation" v:invis="false"
						v:ask="false" v:langID="1033" v:cal="0"/>
				<v:cp v:nameU="Memory" v:lbl="Memory" v:prompt="" v:type="0" v:format="" v:sortKey="Workstation" v:invis="false"
						v:ask="false" v:langID="1033" v:cal="0"/>
				<v:cp v:nameU="OperatingSystem" v:lbl="Operating System" v:prompt="" v:type="0" v:format="" v:sortKey="Workstation"
						v:invis="false" v:ask="false" v:langID="1033" v:cal="0"/>
				<v:cp v:nameU="HardDriveSize" v:lbl="Hard Drive Capacity" v:prompt="" v:type="0" v:format=""
						v:sortKey="Workstation" v:invis="false" v:ask="false" v:langID="1033" v:cal="0"/>
				<v:cp v:nameU="Department" v:lbl="Department" v:prompt="" v:type="0" v:format="" v:sortKey="" v:invis="false"
						v:ask="false" v:langID="1033" v:cal="0"/>
				<v:cp v:nameU="ShapeClass" v:lbl="ShapeClass" v:prompt="" v:type="0" v:format="" v:sortKey="" v:invis="true"
						v:ask="false" v:langID="1033" v:cal="0" v:val="VT4(Equipment)"/>
				<v:cp v:nameU="BelongsTo" v:lbl="Belongs To" v:prompt="" v:type="0" v:format="" v:sortKey="" v:invis="true"
						v:ask="false" v:langID="1033" v:cal="0"/>
			</v:custProps>
			<v:userDefs>
				<v:ud v:nameU="visVersion" v:prompt="" v:val="VT0(15):26"/>
				<v:ud v:nameU="ShapeClass" v:prompt="" v:val="VT0(5):26"/>
				<v:ud v:nameU="SolSH" v:prompt="" v:val="VT15({BF0433D9-CD73-4EB5-8390-8653BE590246}):41"/>
				<v:ud v:nameU="visLegendShape" v:prompt="" v:val="VT0(2):26"/>
			</v:userDefs>
			<title>Virtual server.109</title>
			<g id="shape110-155" v:mID="110" v:groupContext="shape" transform="translate(3.94097,-0.71391)">
				<title>Sheet.110</title>
				<rect x="0" y="336.051" width="11.3937" height="17.8478" class="st14"/>
			</g>
			<g id="shape111-157" v:mID="111" v:groupContext="shape" transform="translate(12.4565,-8.33277)">
				<title>Sheet.111</title>
				<ellipse cx="0.688745" cy="353.21" rx="0.688745" ry="0.688745" class="st14"/>
			</g>
			<g id="shape112-159" v:mID="112" v:groupContext="shape" transform="translate(8.2769,-3.63952)">
				<title>Sheet.112</title>
				<v:userDefs>
					<v:ud v:nameU="SurroundingRegionColor" v:prompt="" v:val="VT0(1):26"/>
				</v:userDefs>
				<path d="M-0 353.9 L5.56 353.9 L5.56 353.45 L-0 353.45 L-0 353.9 ZM-0 352.55 L5.56 352.55 L5.56 352.1 L-0 352.1 L-0
							 352.55 ZM-0 351.19 L5.56 351.19 L5.56 350.75 L-0 350.75 L-0 351.19 Z" class="st15"/>
			</g>
			<g id="shape113-162" v:mID="113" v:groupContext="shape" transform="translate(3.22705,3.59036E-07)">
				<title>Sheet.113</title>
				<path d="M0 353.9 L12.82 353.9 L12.82 334.62 L0 334.62 L0 353.9" class="st16"/>
			</g>
		</g>
		<g id="group114-165" transform="translate(239.575,-81.4751)" v:mID="114" v:groupContext="group">
			<v:custProps>
				<v:cp v:nameU="AssetNumber" v:lbl="Asset Number" v:prompt="" v:type="0" v:format="" v:sortKey="Asset"
						v:invis="false" v:ask="false" v:langID="1033" v:cal="0"/>
				<v:cp v:nameU="SerialNumber" v:lbl="Serial Number" v:prompt="" v:type="0" v:format="" v:sortKey="Asset"
						v:invis="false" v:ask="false" v:langID="1033" v:cal="0"/>
				<v:cp v:nameU="Location" v:lbl="Location" v:prompt="" v:type="0" v:format="" v:sortKey="Asset" v:invis="false"
						v:ask="false" v:langID="1033" v:cal="0"/>
				<v:cp v:nameU="Building" v:lbl="Building" v:prompt="" v:type="0" v:format="" v:sortKey="Asset" v:invis="false"
						v:ask="false" v:langID="1033" v:cal="0"/>
				<v:cp v:nameU="Room" v:lbl="Room" v:prompt="" v:type="0" v:format="" v:sortKey="Asset" v:invis="false"
						v:ask="false" v:langID="1033" v:cal="0"/>
				<v:cp v:nameU="Manufacturer" v:lbl="Manufacturer" v:prompt="" v:type="0" v:format="" v:sortKey="Equipment"
						v:invis="false" v:ask="false" v:langID="1033" v:cal="0"/>
				<v:cp v:nameU="ProductNumber" v:lbl="Product Number" v:prompt="" v:type="0" v:format="" v:sortKey="Equipment"
						v:invis="false" v:ask="false" v:langID="1033" v:cal="0"/>
				<v:cp v:nameU="PartNumber" v:lbl="Part Number" v:prompt="" v:type="0" v:format="" v:sortKey="Equipment"
						v:invis="false" v:ask="false" v:langID="1033" v:cal="0"/>
				<v:cp v:nameU="ProductDescription" v:lbl="Product Description" v:prompt="" v:type="0" v:format=""
						v:sortKey="Equipment" v:invis="false" v:ask="false" v:langID="1033" v:cal="0"/>
				<v:cp v:nameU="NetworkName" v:lbl="Network Name" v:prompt="" v:type="0" v:format="" v:sortKey="Network"
						v:invis="false" v:ask="false" v:langID="1033" v:cal="0"/>
				<v:cp v:nameU="IPAddress" v:lbl="IP Address" v:prompt="" v:type="0" v:format="" v:sortKey="Network" v:invis="false"
						v:ask="false" v:langID="1033" v:cal="0"/>
				<v:cp v:nameU="SubnetMask" v:lbl="Subnet Mask" v:prompt="" v:type="0" v:format="" v:sortKey="Network"
						v:invis="false" v:ask="false" v:langID="1033" v:cal="0"/>
				<v:cp v:nameU="AdminInterface" v:lbl="Administrative Interface" v:prompt="" v:type="0" v:format=""
						v:sortKey="Network" v:invis="false" v:ask="false" v:langID="1033" v:cal="0"/>
				<v:cp v:nameU="NumberofPorts" v:lbl="Number of Ports" v:prompt="" v:type="0" v:format="" v:sortKey="Network"
						v:invis="false" v:ask="false" v:langID="1033" v:cal="0"/>
				<v:cp v:nameU="CommunityString" v:lbl="Community String" v:prompt="" v:type="0" v:format="" v:sortKey="Network"
						v:invis="false" v:ask="false" v:langID="1033" v:cal="0"/>
				<v:cp v:nameU="NetworkDescription" v:lbl="Network Description" v:prompt="" v:type="0" v:format=""
						v:sortKey="Network" v:invis="false" v:ask="false" v:langID="1033" v:cal="0"/>
				<v:cp v:nameU="MACAddress" v:lbl="MAC Address" v:prompt="" v:type="0" v:format="" v:sortKey="Network"
						v:invis="false" v:ask="false" v:langID="1033" v:cal="0"/>
				<v:cp v:nameU="CPU" v:lbl="CPU" v:prompt="" v:type="0" v:format="" v:sortKey="Workstation" v:invis="false"
						v:ask="false" v:langID="1033" v:cal="0"/>
				<v:cp v:nameU="Memory" v:lbl="Memory" v:prompt="" v:type="0" v:format="" v:sortKey="Workstation" v:invis="false"
						v:ask="false" v:langID="1033" v:cal="0"/>
				<v:cp v:nameU="OperatingSystem" v:lbl="Operating System" v:prompt="" v:type="0" v:format="" v:sortKey="Workstation"
						v:invis="false" v:ask="false" v:langID="1033" v:cal="0"/>
				<v:cp v:nameU="HardDriveSize" v:lbl="Hard Drive Capacity" v:prompt="" v:type="0" v:format=""
						v:sortKey="Workstation" v:invis="false" v:ask="false" v:langID="1033" v:cal="0"/>
				<v:cp v:nameU="Department" v:lbl="Department" v:prompt="" v:type="0" v:format="" v:sortKey="" v:invis="false"
						v:ask="false" v:langID="1033" v:cal="0"/>
				<v:cp v:nameU="ShapeClass" v:lbl="ShapeClass" v:prompt="" v:type="0" v:format="" v:sortKey="" v:invis="true"
						v:ask="false" v:langID="1033" v:cal="0" v:val="VT4(Equipment)"/>
				<v:cp v:nameU="ShapeType" v:lbl="ShapeType" v:prompt="" v:type="0" v:format="" v:sortKey="" v:invis="true"
						v:ask="false" v:langID="1033" v:cal="0" v:val="VT4(Computer)"/>
				<v:cp v:nameU="SubShapeType" v:lbl="SubShapeType" v:prompt="" v:type="0" v:format="" v:sortKey="" v:invis="true"
						v:ask="false" v:langID="1033" v:cal="0" v:val="VT4(Desktop)"/>
				<v:cp v:nameU="BelongsTo" v:lbl="Belongs To" v:prompt="" v:type="0" v:format="" v:sortKey="" v:invis="true"
						v:ask="false" v:langID="1033" v:cal="0"/>
			</v:custProps>
			<v:userDefs>
				<v:ud v:nameU="visVersion" v:prompt="" v:val="VT0(15):26"/>
				<v:ud v:nameU="ShapeClass" v:prompt="" v:val="VT0(5):26"/>
				<v:ud v:nameU="SolSH" v:prompt="" v:val="VT15({BF0433D9-CD73-4EB5-8390-8653BE590246}):41"/>
				<v:ud v:nameU="visLegendShape" v:prompt="" v:val="VT0(2):26"/>
			</v:userDefs>
			<title>Virtual PC.114</title>
			<g id="shape115-166" v:mID="115" v:groupContext="shape" transform="translate(1.66343,-2.56761)">
				<title>Sheet.115</title>
				<path d="M13.56 348.98 L13.56 350.67 L14.59 350.67 L15.55 351.88 L20.02 351.88 L20.02 336.55 L13.56 336.55 L13.56
							 338.75 L16.34 338.75 L16.34 348.98 L13.56 348.98 ZM16.34 338.75 L1 338.75 L1 348.98 L16.34 348.98 L16.34
							 338.75 ZM17.16 353.9 L14.59 350.67 L2.57 350.67 L0 353.9 L17.16 353.9 ZM9.93 348.98 L7.23 348.98 L7.23
							 350.67 L9.93 350.67 L9.93 348.98 Z" class="st14"/>
			</g>
			<g id="shape116-168" v:mID="116" v:groupContext="shape" transform="translate(3.65626,-8.40719)">
				<title>Sheet.116</title>
				<v:userDefs>
					<v:ud v:nameU="SurroundingRegionColor" v:prompt="" v:val="VT0(1):26"/>
				</v:userDefs>
				<path d="M13.37 345.6 L0 345.6 L0 353.9 L13.37 353.9 L13.37 345.6 Z" class="st14"/>
			</g>
			<g id="shape117-170" v:mID="117" v:groupContext="shape" transform="translate(3.99885,-3.23373)">
				<title>Sheet.117</title>
				<v:userDefs>
					<v:ud v:nameU="SurroundingRegionColor" v:prompt="" v:val="VT0(1):26"/>
				</v:userDefs>
				<path d="M15.1 338.93 L16.48 338.93 L16.48 338.39 L15.1 338.39 L15.1 338.93 ZM15.1 339.89 L16.48 339.89 L16.48 339.35
							 L15.1 339.35 L15.1 339.89 ZM11.72 352.65 L10.96 352.65 L11.38 353.12 L12.2 353.12 L11.72 352.65 ZM10.86
							 351.8 L10.2 351.8 L10.66 352.31 L11.38 352.31 L10.86 351.8 ZM10.55 352.65 L9.78 352.65 L10.12 353.12
							 L10.94 353.12 L10.55 352.65 ZM9.85 351.8 L9.19 351.8 L9.55 352.31 L10.27 352.31 L9.85 351.8 ZM9.37 352.65
							 L8.61 352.65 L8.85 353.12 L9.68 353.12 L9.37 352.65 ZM8.84 351.8 L8.18 351.8 L8.44 352.33 L9.17 352.33
							 L8.84 351.8 ZM8.2 352.65 L7.44 352.65 L7.59 353.12 L8.41 353.12 L8.2 352.65 ZM7.84 351.84 L7.18 351.84
							 L7.33 352.33 L8.06 352.33 L7.84 351.84 ZM7.03 352.65 L6.26 352.65 L6.32 353.12 L7.15 353.12 L7.03 352.65
							 ZM6.83 351.88 L6.17 351.88 L6.23 352.36 L6.95 352.36 L6.83 351.88 ZM5.81 351.88 L5.14 351.88 L5.11 352.36
							 L5.84 352.36 L5.81 351.88 ZM5.85 352.65 L5.09 352.65 L5.06 353.12 L5.88 353.12 L5.85 352.65 ZM4.78 351.88
							 L4.12 351.88 L3.99 352.36 L4.72 352.36 L4.78 351.88 ZM4.68 352.65 L3.92 352.65 L3.79 353.12 L4.62 353.12
							 L4.68 352.65 ZM8.86 353.42 L3.48 353.42 L3.34 353.9 L9.1 353.9 L8.86 353.42 ZM3.76 351.88 L3.09 351.88
							 L2.88 352.36 L3.6 352.36 L3.76 351.88 ZM3.51 352.65 L2.74 352.65 L2.53 353.12 L3.35 353.12 L3.51 352.65
							 ZM2.73 351.88 L2.07 351.88 L1.76 352.36 L2.48 352.36 L2.73 351.88 ZM2.33 352.65 L1.57 352.65 L1.26 353.12
							 L2.09 353.12 L2.33 352.65 ZM1.71 351.88 L1.04 351.88 L0.64 352.36 L1.37 352.36 L1.71 351.88 ZM1.16 352.65
							 L0.4 352.65 L0 353.12 L0.82 353.12 L1.16 352.65 Z" class="st15"/>
			</g>
			<g id="shape118-173" v:mID="118" v:groupContext="shape" transform="translate(0,-1.76666)">
				<title>Sheet.118</title>
				<path d="M14.43 337.14 L1.86 337.14 L1.86 348.98 L3.92 348.98 L0 353.9 L20.49 353.9 L18.88 351.88 L22.49 351.88 L22.49
							 334.94 L14.43 334.94 L14.43 337.14" class="st16"/>
			</g>
		</g>
		<g id="shape119-176" v:mID="119" v:groupContext="shape" v:layerMember="1" transform="translate(232.781,-113.979)">
			<title>Dynamic connector.119</title>
			<desc>TCP 443</desc>
			<v:textBlock v:margins="rect(4,4,4,4)" v:tabSpace="42.5197"/>
			<v:textRect cx="-1.12461" cy="328.953" width="30" height="15.2035" transform="rotate(-90)"/>
			<path d="M-6.79 353.9 L-7.38 238.06" class="st21"/>
			<rect v:rectContext="textBkgnd" x="-338.804" y="-4.72431" width="19.7021" height="7.20016" transform="rotate(-90)"
					class="st10"/>
			<text x="-338.8" y="0.68" transform="rotate(-90)" class="st2" v:langID="2058"><v:paragraph v:horizAlign="1"/><v:tabList/>TCP 443</text>		</g>
		<g id="shape121-184" v:mID="121" v:groupContext="shape" v:layerMember="0" transform="translate(215.048,-52.1905)">
			<title>Container Service.121</title>
			<path d="M21.16 341.4 L21.16 347.63 L24.96 346.16 L24.96 342.77 L21.16 341.4 ZM19.62 346.76 L19.37 346.66 L19.37 342.36
						 L19.62 342.31 L19.87 342.21 L20.17 342.11 L20.17 346.92 L19.87 346.82 L19.62 346.76 ZM18.72 346.46 L18.52
						 346.41 L18.52 342.62 L19.12 342.46 L19.12 346.61 L18.92 346.56 L18.72 346.46 ZM17.97 346.21 L17.82 346.16
						 L17.82 342.77 L18.27 342.62 L18.27 346.31 L17.97 346.21 ZM17.67 342.41 L17.67 346.51 L20.52 347.63 L20.52
						 341.4 L17.67 342.41 ZM16.52 335.18 L16.52 341.45 L20.37 339.94 L20.37 336.55 L16.52 335.18 ZM16.52 347.63
						 L16.52 353.9 L20.37 352.38 L20.37 348.99 L16.52 347.63 ZM15.02 340.54 L14.78 340.44 L14.78 336.14 L15.02
						 336.09 L15.27 335.99 L15.57 335.89 L15.57 340.69 L15.27 340.59 L15.02 340.54 ZM14.13 340.24 L13.93 340.19
						 L13.93 336.39 L14.53 336.24 L14.53 340.39 L14.33 340.34 L14.13 340.24 ZM13.38 340.04 L13.23 339.99 L13.23
						 336.6 L13.68 336.44 L13.68 340.14 L13.38 340.04 ZM13.08 336.24 L13.08 340.34 L15.92 341.45 L15.92 335.23
						 L13.08 336.24 ZM15.02 352.99 L14.78 352.89 L14.78 348.59 L15.02 348.54 L15.27 348.43 L15.57 348.33 L15.57
						 353.14 L15.27 353.04 L15.02 352.99 ZM14.13 352.68 L13.93 352.63 L13.93 348.84 L14.53 348.69 L14.53 352.84
						 L14.33 352.79 L14.13 352.68 ZM13.38 352.48 L13.23 352.43 L13.23 349.04 L13.68 348.89 L13.68 352.58 L13.38
						 352.48 ZM13.08 348.69 L13.08 352.79 L15.92 353.9 L15.92 347.68 L13.08 348.69 ZM12.38 341.4 L12.38 347.63
						 L16.17 346.16 L16.17 342.77 L12.38 341.4 ZM10.83 346.76 L10.58 346.66 L10.58 342.36 L10.83 342.31 L11.08
						 342.21 L11.38 342.11 L11.38 346.92 L11.08 346.82 L10.83 346.76 ZM9.93 346.46 L9.73 346.41 L9.73 342.62 L10.33
						 342.46 L10.33 346.61 L10.13 346.56 L9.93 346.46 ZM9.18 346.21 L9.03 346.16 L9.03 342.77 L9.48 342.62 L9.48
						 346.31 L9.18 346.21 ZM8.89 342.41 L8.89 346.51 L11.73 347.63 L11.73 341.4 L8.89 342.41 ZM7.59 335.18 L7.59
						 341.45 L11.43 339.94 L11.43 336.55 L7.59 335.18 ZM7.59 347.63 L7.59 353.9 L11.43 352.38 L11.43 348.99 L7.59
						 347.63 ZM6.09 340.54 L5.84 340.44 L5.84 336.14 L6.09 336.09 L6.34 335.99 L6.64 335.89 L6.64 340.69 L6.34
						 340.59 L6.09 340.54 ZM5.19 340.24 L4.99 340.19 L4.99 336.39 L5.59 336.24 L5.59 340.39 L5.39 340.34 L5.19
						 340.24 ZM4.44 340.04 L4.29 339.99 L4.29 336.6 L4.74 336.44 L4.74 340.14 L4.44 340.04 ZM4.14 336.24 L4.14
						 340.34 L6.99 341.45 L6.99 335.23 L4.14 336.24 ZM6.09 352.99 L5.84 352.89 L5.84 348.59 L6.09 348.54 L6.34
						 348.43 L6.64 348.33 L6.64 353.14 L6.34 353.04 L6.09 352.99 ZM5.19 352.68 L4.99 352.63 L4.99 348.84 L5.59
						 348.69 L5.59 352.84 L5.39 352.79 L5.19 352.68 ZM4.44 352.48 L4.29 352.43 L4.29 349.04 L4.74 348.89 L4.74
						 352.58 L4.44 352.48 ZM4.14 348.69 L4.14 352.79 L6.99 353.9 L6.99 347.68 L4.14 348.69 ZM3.49 341.4 L3.49
						 347.63 L7.29 346.16 L7.29 342.77 L3.49 341.4 ZM1.95 346.76 L1.7 346.66 L1.7 342.36 L1.95 342.31 L2.2 342.21
						 L2.5 342.11 L2.5 346.92 L2.2 346.82 L1.95 346.76 ZM1.05 346.46 L0.85 346.41 L0.85 342.62 L1.45 342.46 L1.45
						 346.61 L1.25 346.56 L1.05 346.46 ZM0.3 346.21 L0.15 346.16 L0.15 342.77 L0.6 342.62 L0.6 346.31 L0.3 346.21
						 ZM0 342.41 L0 346.51 L2.85 347.63 L2.85 341.4 L0 342.41 Z" class="st22"/>
		</g>
		<g id="shape123-186" v:mID="123" v:groupContext="shape" transform="translate(292.299,-276.971)">
			<title>Sheet.123</title>
			<desc>MMA</desc>
			<v:textBlock v:margins="rect(4,4,4,4)" v:tabSpace="42.5197"/>
			<v:textRect cx="7.65354" cy="350.355" width="15.31" height="7.08661"/>
			<rect x="0" y="346.812" width="15.3071" height="7.08661" class="st23"/>
			<text x="4.22" y="351.26" class="st24" v:langID="2058"><v:paragraph v:horizAlign="1"/><v:tabList/>MMA</text>		</g>
		<g id="shape125-189" v:mID="125" v:groupContext="shape" transform="translate(333.118,-199.018)">
			<title>Sheet.125</title>
			<desc>MMA</desc>
			<v:textBlock v:margins="rect(4,4,4,4)" v:tabSpace="42.5197"/>
			<v:textRect cx="7.65354" cy="350.355" width="15.31" height="7.08661"/>
			<rect x="0" y="346.812" width="15.3071" height="7.08661" class="st23"/>
			<text x="4.22" y="351.26" class="st24" v:langID="2058"><v:paragraph v:horizAlign="1"/><v:tabList/>MMA</text>		</g>
		<g id="shape127-192" v:mID="127" v:groupContext="shape" transform="translate(92.4565,-245.436)">
			<title>Sheet.127</title>
			<desc>MMA</desc>
			<v:textBlock v:margins="rect(4,4,4,4)" v:tabSpace="42.5197"/>
			<v:textRect cx="7.65354" cy="350.355" width="15.31" height="7.08661"/>
			<rect x="0" y="346.812" width="15.3071" height="7.08661" class="st23"/>
			<text x="4.22" y="351.26" class="st24" v:langID="2058"><v:paragraph v:horizAlign="1"/><v:tabList/>MMA</text>		</g>
		<g id="shape129-195" v:mID="129" v:groupContext="shape" transform="translate(231.921,-50.7381)">
			<title>Sheet.129</title>
			<desc>MMA</desc>
			<v:textBlock v:margins="rect(4,4,4,4)" v:tabSpace="42.5197"/>
			<v:textRect cx="7.65354" cy="350.355" width="15.31" height="7.08661"/>
			<rect x="0" y="346.812" width="15.3071" height="7.08661" class="st23"/>
			<text x="4.22" y="351.26" class="st24" v:langID="2058"><v:paragraph v:horizAlign="1"/><v:tabList/>MMA</text>		</g>
		<g id="shape130-198" v:mID="130" v:groupContext="shape" transform="translate(255.314,-81.4751)">
			<title>Sheet.130</title>
			<desc>MMA</desc>
			<v:textBlock v:margins="rect(4,4,4,4)" v:tabSpace="42.5197"/>
			<v:textRect cx="7.65354" cy="350.355" width="15.31" height="7.08661"/>
			<rect x="0" y="346.812" width="15.3071" height="7.08661" class="st23"/>
			<text x="4.22" y="351.26" class="st24" v:langID="2058"><v:paragraph v:horizAlign="1"/><v:tabList/>MMA</text>		</g>
		<g id="shape131-201" v:mID="131" v:groupContext="shape" transform="translate(199.89,-95.5539)">
			<title>Sheet.131</title>
			<desc>MMA</desc>
			<v:textBlock v:margins="rect(4,4,4,4)" v:tabSpace="42.5197"/>
			<v:textRect cx="7.65354" cy="350.355" width="15.31" height="7.08661"/>
			<rect x="0" y="346.812" width="15.3071" height="7.08661" class="st23"/>
			<text x="4.22" y="351.26" class="st24" v:langID="2058"><v:paragraph v:horizAlign="1"/><v:tabList/>MMA</text>		</g>
	</g>
</svg>
